<svg width="40" height="46" viewBox="0 0 40 46" fill="none" xmlns="http://www.w3.org/2000/svg">
<rect x="1.6499" y="7.83423" width="28.198" height="32.3027" rx="4.75" stroke="#656060" stroke-width="2.5"/>
<rect x="9.60863" y="1.25" width="12.2805" height="5.96551" rx="1.75" stroke="#656060" stroke-width="2.5"/>
<path d="M1.53687 28.2184C1.53687 26.7382 2.04391 25.9857 2.62416 25.1732C3.31211 24.2098 4.39871 23.5154 5.58249 23.5154H26.7759C27.9783 23.5154 29.0756 24.231 29.4284 25.3805C29.7044 26.28 29.9609 27.3495 29.9609 28.2184" stroke="#656060" stroke-width="2"/>
<path d="M1.53687 27.2778C1.53687 25.7976 2.04391 25.0451 2.62416 24.2326C3.31211 23.2692 4.39871 22.5748 5.58249 22.5748H26.7759C27.9783 22.5748 29.0756 23.2904 29.4284 24.4398C29.7044 25.3393 29.9609 26.4089 29.9609 27.2778" stroke="#656060" stroke-width="2"/>
<path fill-rule="evenodd" clip-rule="evenodd" d="M14.9931 18.1705C13.9425 18.1705 13.0771 19.0187 13.0771 20.0483L13.0746 36.3247C13.0746 37.1603 14.3532 37.1603 14.3532 36.3247L14.3545 20.0483C14.3545 19.6909 14.6285 19.4224 14.9931 19.4224H32.8757C33.2403 19.4224 33.5143 19.6909 33.5143 20.0483V31.3148C33.5015 32.1611 34.8044 32.1611 34.7916 31.3148V20.0483C34.7916 19.0187 33.9263 18.1705 32.8757 18.1705H14.9931ZM18.8251 23.1779C18.6557 23.1779 18.4933 23.2438 18.3735 23.3612C18.2537 23.4786 18.1864 23.6378 18.1864 23.8038C18.1864 23.9698 18.2537 24.129 18.3735 24.2464C18.4933 24.3638 18.6557 24.4297 18.8251 24.4297C18.9945 24.4297 19.1569 24.3638 19.2767 24.2464C19.3965 24.129 19.4638 23.9698 19.4638 23.8038C19.4638 23.6378 19.3965 23.4786 19.2767 23.3612C19.1569 23.2438 18.9945 23.1779 18.8251 23.1779ZM21.3159 23.1791C20.4837 23.2355 20.5431 24.4523 21.3772 24.431H29.0437C29.8771 24.4134 29.8771 23.1967 29.0437 23.1791H21.3772C21.3568 23.1782 21.3363 23.1782 21.3159 23.1791ZM18.8251 26.9334C18.6557 26.9334 18.4933 26.9993 18.3735 27.1167C18.2537 27.2341 18.1864 27.3933 18.1864 27.5593C18.1864 27.7253 18.2537 27.8845 18.3735 28.0019C18.4933 28.1193 18.6557 28.1852 18.8251 28.1852C18.9945 28.1852 19.1569 28.1193 19.2767 28.0019C19.3965 27.8845 19.4638 27.7253 19.4638 27.5593C19.4638 27.3933 19.3965 27.2341 19.2767 27.1167C19.1569 26.9993 18.9945 26.9334 18.8251 26.9334ZM29.1139 26.9334C29.0903 26.9334 29.0667 26.9334 29.0437 26.9359H21.3772C21.3568 26.935 21.3363 26.935 21.3159 26.9359C20.5329 27.031 20.5878 28.1615 21.3772 28.1827H29.0437C29.9206 28.2585 29.994 26.9515 29.1139 26.9334ZM21.3772 30.6877C20.5437 30.7052 20.5437 31.922 21.3772 31.9395H29.0437C29.9135 31.9583 29.9135 30.6689 29.0437 30.6877H21.3772ZM18.8251 30.6889C18.6557 30.6889 18.4933 30.7549 18.3735 30.8722C18.2537 30.9896 18.1864 31.1488 18.1864 31.3148C18.1864 31.4808 18.2537 31.64 18.3735 31.7574C18.4933 31.8748 18.6557 31.9408 18.8251 31.9408C18.9945 31.9408 19.1569 31.8748 19.2767 31.7574C19.3965 31.64 19.4638 31.4808 19.4638 31.3148C19.4638 31.1488 19.3965 30.9896 19.2767 30.8722C19.1569 30.7549 18.9945 30.6889 18.8251 30.6889ZM18.8251 34.4444C18.6557 34.4444 18.4933 34.5104 18.3735 34.6278C18.2537 34.7451 18.1864 34.9043 18.1864 35.0703C18.1864 35.2363 18.2537 35.3956 18.3735 35.5129C18.4933 35.6303 18.6557 35.6963 18.8251 35.6963C18.9945 35.6963 19.1569 35.6303 19.2767 35.5129C19.3965 35.3956 19.4638 35.2363 19.4638 35.0703C19.4638 34.9043 19.3965 34.7451 19.2767 34.6278C19.1569 34.5104 18.9945 34.4444 18.8251 34.4444ZM21.3772 34.4444C20.5073 34.4256 20.5073 35.715 21.3772 35.6963H27.7651C28.6349 35.715 28.6349 34.4256 27.7651 34.4444H21.3772ZM18.8251 38.1999C18.6557 38.1999 18.4933 38.2659 18.3735 38.3833C18.2537 38.5006 18.1864 38.6599 18.1864 38.8259C18.1864 38.9919 18.2537 39.1511 18.3735 39.2684C18.4933 39.3858 18.6557 39.4518 18.8251 39.4518C18.9945 39.4518 19.1569 39.3858 19.2767 39.2684C19.3965 39.1511 19.4638 38.9919 19.4638 38.8259C19.4638 38.6599 19.3965 38.5006 19.2767 38.3833C19.1569 38.2659 18.9945 38.1999 18.8251 38.1999ZM21.3159 38.1999C20.4639 38.24 20.5246 39.4931 21.3772 39.453H26.4878C27.3404 39.453 27.3404 38.1999 26.4878 38.1999H21.3772C21.3568 38.199 21.3363 38.199 21.3159 38.1999ZM13.7069 38.8146C13.6224 38.8154 13.539 38.8326 13.4614 38.8652C13.3839 38.8978 13.3136 38.9452 13.2548 39.0045C13.196 39.0639 13.1498 39.1341 13.1189 39.2111C13.088 39.2881 13.0729 39.3703 13.0746 39.453L13.0771 42.5814C13.0771 43.611 13.9425 44.4591 14.9931 44.4591H27.7664C28.6298 44.4716 28.6298 43.1948 27.7664 43.2073H14.9931C14.6285 43.2073 14.3545 42.9388 14.3545 42.5814L14.3532 39.453C14.3549 39.3691 14.3394 39.2858 14.3076 39.2079C14.2758 39.13 14.2283 39.0592 14.168 38.9996C14.1077 38.9401 14.0358 38.893 13.9566 38.8612C13.8774 38.8294 13.7925 38.8136 13.7069 38.8146Z" fill="#C9C5C5"/>
<path fill-rule="evenodd" clip-rule="evenodd" d="M28.2716 39.3938C28.2716 36.2898 30.8511 33.7605 34.0182 33.7605C37.1847 33.7605 39.7649 36.2898 39.7649 39.3938C39.7649 42.4977 37.1854 45.0308 34.0182 45.0308C30.8517 45.0308 28.2716 42.4977 28.2716 39.3938ZM34.0182 35.0136C34.6055 35.0123 35.1873 35.1247 35.7302 35.3443C36.273 35.564 36.7663 35.8866 37.1815 36.2936C37.5968 36.7006 37.926 37.184 38.1501 37.716C38.3742 38.248 38.4889 38.8182 38.4876 39.3938C38.489 39.9696 38.3744 40.5399 38.1504 41.0722C37.9263 41.6045 37.5972 42.0882 37.182 42.4955C36.7667 42.9028 36.2735 43.2257 35.7306 43.4458C35.1876 43.6658 34.6057 43.7786 34.0182 43.7777C33.4307 43.7786 32.8488 43.6658 32.3059 43.4458C31.763 43.2257 31.2697 42.9028 30.8545 42.4955C30.4392 42.0882 30.1102 41.6045 29.8861 41.0722C29.662 40.5399 29.5474 39.9696 29.5489 39.3938C29.5475 38.8182 29.6622 38.248 29.8863 37.716C30.1105 37.184 30.4396 36.7006 30.8549 36.2936C31.2702 35.8866 31.7634 35.564 32.3063 35.3443C32.8491 35.1247 33.4309 35.0123 34.0182 35.0136Z" fill="#1E877E"/>
<path d="M36.0351 37.439C35.8697 37.4443 35.7129 37.5123 35.5976 37.6287L33.3393 39.8413L32.4388 38.955C32.3796 38.896 32.3091 38.849 32.2312 38.8169C32.1534 38.7847 32.0699 38.768 31.9854 38.7676C31.901 38.7672 31.8173 38.7832 31.7392 38.8147C31.6611 38.8462 31.5901 38.8925 31.5304 38.951C31.4706 39.0094 31.4232 39.0789 31.391 39.1554C31.3588 39.2319 31.3423 39.3139 31.3426 39.3967C31.3429 39.4795 31.3598 39.5614 31.3926 39.6377C31.4253 39.714 31.4731 39.7832 31.5332 39.8413L32.8872 41.1676C32.9465 41.2258 33.0169 41.272 33.0944 41.3035C33.172 41.335 33.2551 41.3512 33.339 41.3512C33.4229 41.3512 33.5061 41.335 33.5836 41.3035C33.6611 41.272 33.7316 41.2258 33.7909 41.1676L36.5033 38.515C36.5964 38.4269 36.6601 38.3132 36.6858 38.1889C36.7115 38.0646 36.6981 37.9356 36.6474 37.819C36.5966 37.7023 36.5109 37.6035 36.4016 37.5357C36.2922 37.4678 36.1644 37.4341 36.0351 37.439Z" fill="#1E877E"/>
</svg>
