<?xml version="1.0" encoding="iso-8859-1"?>
<!-- Uploaded to: SVG Repo, www.svgrepo.com, Generator: SVG Repo Mixer Tools -->
<svg fill="#B0AEAE" height="800px" width="800px" version="1.1" id="Capa_1" xmlns="http://www.w3.org/2000/svg" xmlns:xlink="http://www.w3.org/1999/xlink" 
	 viewBox="0 0 463 463" xml:space="preserve">
<g>
	<path d="M243.5,48C226.131,48,212,62.131,212,79.5s14.131,31.5,31.5,31.5S275,96.869,275,79.5S260.869,48,243.5,48z M243.5,96
		c-9.098,0-16.5-7.402-16.5-16.5S234.402,63,243.5,63S260,70.402,260,79.5S252.598,96,243.5,96z"/>
	<path d="M355.733,417.492c6.444-3.501,9.693-11.215,7.332-18.428l-7.465-22.81c-1.288-3.935-4.031-7.133-7.724-9.004
		c-3.693-1.872-7.895-2.194-11.829-0.905l-0.475,0.155l-41.838-127.839c3.05-0.951,5.265-3.797,5.265-7.161v-16
		c0-12.958-10.542-23.5-23.5-23.5h-5.181c2.965-4.802,4.681-10.454,4.681-16.5c0-6.151-1.779-11.891-4.839-16.745
		C277.442,157.487,283,151.138,283,143.5V135h24.5c12.958,0,23.5-10.542,23.5-23.5v-64c0-12.958-10.542-23.5-23.5-23.5h-26.234
		c-0.216,0-0.407-0.138-0.475-0.342l-2.53-7.589C275.058,6.458,266.099,0,255.968,0h-24.936c-10.131,0-19.091,6.458-22.294,16.069
		l-2.53,7.589C206.14,23.863,205.949,24,205.734,24H179.5C166.542,24,156,34.542,156,47.5v64c0,12.958,10.542,23.5,23.5,23.5H204
		v8.5c0,1.841,0.339,3.6,0.931,5.239l-22.992,8.211c-2.221-2.82-5.064-5.123-8.405-6.702c-5.675-2.682-12.05-2.992-17.94-0.878
		l-48,17.145c-12.2,4.359-18.581,17.833-14.224,30.034c3.331,9.331,12.225,15.6,22.13,15.6c2.7,0,5.362-0.463,7.906-1.375l48-17.145
		c9.73-3.476,15.751-12.751,15.583-22.555l28.639-10.228c-2.313,4.381-3.628,9.365-3.628,14.653c0,6.046,1.716,11.698,4.681,16.5
		H211.5c-12.958,0-23.5,10.542-23.5,23.5v16c0,3.364,2.215,6.21,5.265,7.161L151.427,366.5l-0.475-0.156
		c-3.935-1.287-8.136-0.966-11.829,0.905c-3.693,1.872-6.436,5.07-7.724,9.004l-7.465,22.81c-1.288,3.935-0.966,8.136,0.905,11.829
		c1.442,2.844,3.675,5.116,6.421,6.602C122.355,420.84,116,429.44,116,439.5v16c0,4.142,3.358,7.5,7.5,7.5h32
		c4.142,0,7.5-3.358,7.5-7.5v-16c0-5.934-2.215-11.357-5.856-15.497c1.28-0.279,2.536-0.708,3.735-1.316
		c3.693-1.872,6.436-5.069,7.724-9.004L173.408,399H220v16.5c0,4.098,1.61,7.819,4.216,10.593
		c-2.654,3.805-4.216,8.426-4.216,13.407v16c0,4.142,3.358,7.5,7.5,7.5h32c4.142,0,7.5-3.358,7.5-7.5v-16
		c0-4.981-1.562-9.601-4.216-13.407c2.606-2.774,4.216-6.495,4.216-10.593V399h46.592l4.805,14.682
		c1.288,3.935,4.03,7.133,7.724,9.005c1.2,0.608,2.455,1.037,3.735,1.316c-3.641,4.14-5.856,9.563-5.856,15.497v16
		c0,4.142,3.358,7.5,7.5,7.5h32c4.142,0,7.5-3.358,7.5-7.5v-16C371,429.438,364.642,420.836,355.733,417.492z M311.837,379.044
		c-0.8,1.579-1.299,3.252-1.528,4.956h-45.255c-2.647-4.765-7.728-8-13.555-8H251V239h27.063l43.254,132.165l-0.475,0.155
		C316.907,372.608,313.71,375.351,311.837,379.044z M235.5,416c-0.276,0-0.5-0.224-0.5-0.5v-24c0-0.276,0.224-0.5,0.5-0.5h16
		c0.276,0,0.5,0.224,0.5,0.5v24c0,0.276-0.224,0.5-0.5,0.5H235.5z M203,79.5c0-22.332,18.168-40.5,40.5-40.5S284,57.168,284,79.5
		S265.832,120,243.5,120S203,101.832,203,79.5z M316,47.5v64c0,4.687-3.813,8.5-8.5,8.5h-26.11C292.216,109.866,299,95.464,299,79.5
		s-6.784-30.366-17.61-40.5h26.11C312.187,39,316,42.813,316,47.5z M222.968,20.812c1.159-3.477,4.399-5.812,8.064-5.812h24.936
		c3.665,0,6.905,2.335,8.063,5.812l2.53,7.59c0.087,0.261,0.19,0.513,0.29,0.767C259.748,25.86,251.839,24,243.5,24
		c-8.339,0-16.248,1.86-23.352,5.17c0.1-0.254,0.203-0.507,0.29-0.768L222.968,20.812z M171,111.5v-64c0-4.687,3.813-8.5,8.5-8.5
		h26.11C194.784,49.134,188,63.536,188,79.5s6.784,30.366,17.61,40.5H179.5C174.813,120,171,116.187,171,111.5z M268,135v8.5
		c0,0.276-0.224,0.5-0.5,0.5h-48c-0.276,0-0.5-0.224-0.5-0.5V135H268z M166.36,179.503l-48.006,17.147
		c-0.923,0.331-1.883,0.498-2.854,0.498c-3.582,0-6.798-2.268-8.003-5.644c-1.576-4.414,0.731-9.288,5.144-10.864l48.011-17.148
		c0.931-0.334,1.895-0.5,2.857-0.5c1.234,0,2.465,0.274,3.617,0.818c2.058,0.973,3.613,2.688,4.378,4.83
		C173.08,173.054,170.772,177.927,166.36,179.503z M227,175.5c0-9.098,7.402-16.5,16.5-16.5s16.5,7.402,16.5,16.5
		s-7.402,16.5-16.5,16.5S227,184.598,227,175.5z M203,215.5c0-4.687,3.813-8.5,8.5-8.5h64c4.687,0,8.5,3.813,8.5,8.5v8.5h-0.573
		c-0.018,0-0.036,0-0.054,0h-79.744c-0.019,0-0.038,0-0.057,0H203V215.5z M208.937,239H236v137h-0.5c-5.827,0-10.908,3.235-13.555,8
		H176.69c-0.229-1.704-0.728-3.377-1.528-4.956c-1.872-3.693-5.07-6.436-9.005-7.724l-0.475-0.155L208.937,239z M148,448h-17v-8.5
		c0-4.687,3.813-8.5,8.5-8.5s8.5,3.813,8.5,8.5V448z M161.812,386.208l-7.465,22.809c-0.016,0.049-0.064,0.197-0.25,0.291
		c-0.185,0.094-0.333,0.045-0.381,0.029l-15.206-4.977h0c-0.049-0.016-0.197-0.064-0.29-0.249c-0.094-0.185-0.045-0.333-0.029-0.382
		l7.465-22.81c0.016-0.049,0.064-0.197,0.249-0.29c0.084-0.043,0.162-0.056,0.225-0.056c0.075,0,0.13,0.018,0.157,0.027l7.602,2.488
		l0.001,0.001c0,0,0.001,0,0.001,0l7.603,2.488c0.049,0.016,0.197,0.064,0.29,0.249C161.876,386.01,161.828,386.158,161.812,386.208
		z M252,448h-17v-8.5c0-4.687,3.813-8.5,8.5-8.5s8.5,3.813,8.5,8.5V448z M325.188,386.208c-0.085-0.262,0.058-0.545,0.32-0.631
		l15.206-4.977c0.052-0.017,0.104-0.025,0.155-0.025c0.21,0,0.407,0.134,0.476,0.344l7.465,22.81
		c0.085,0.262-0.058,0.545-0.319,0.631l-15.207,4.977c-0.048,0.016-0.197,0.065-0.381-0.029c-0.185-0.093-0.233-0.241-0.249-0.291
		L325.188,386.208z M356,448h-17v-8.5c0-4.687,3.813-8.5,8.5-8.5s8.5,3.813,8.5,8.5V448z"/>
</g>
</svg>