<svg width="104" height="100" viewBox="0 0 104 100" fill="none" xmlns="http://www.w3.org/2000/svg">
<path d="M95.875 37.5H87.75V10.9375C87.75 8.8655 86.894 6.87836 85.3702 5.41323C83.8465 3.9481 81.7799 3.125 79.625 3.125H73.125C70.9701 3.125 68.9035 3.9481 67.3798 5.41323C65.856 6.87836 65 8.8655 65 10.9375V12.8438C60.2707 10.2029 55.0128 8.55618 49.5732 8.01213C44.1336 7.46808 38.6358 8.03909 33.4425 9.6875L30.7288 4.03125C30.5957 3.76189 30.3864 3.53403 30.1248 3.37375C29.8633 3.21347 29.5601 3.12726 29.25 3.125H22.75C22.319 3.125 21.9057 3.28962 21.601 3.58265C21.2962 3.87567 21.125 4.2731 21.125 4.6875V16.0781C20.0338 16.906 18.9972 17.7984 18.0212 18.75H14.6413L12.9187 13.5781C12.8125 13.2649 12.606 12.9919 12.3288 12.7983C12.0515 12.6046 11.7177 12.5002 11.375 12.5H4.875C4.44402 12.5 4.0307 12.6646 3.72595 12.9576C3.4212 13.2507 3.25 13.6481 3.25 14.0625V35.9375C3.25 36.3519 3.4212 36.7493 3.72595 37.0424C4.0307 37.3354 4.44402 37.5 4.875 37.5H7.3775C6.79239 40.066 6.49817 42.6855 6.5 45.3125C6.51376 55.2541 10.6271 64.7846 17.938 71.8144C25.249 78.8441 35.1608 82.7993 45.5 82.8125C47.1307 82.8048 48.7591 82.6952 50.375 82.4844V87.5C50.3789 88.7421 50.8937 89.9322 51.8071 90.8105C52.7205 91.6887 53.9583 92.1838 55.25 92.1875H55.4775C55.8323 93.5282 56.6416 94.7171 57.7775 95.5662C58.9134 96.4153 60.3112 96.8763 61.75 96.8763C63.1888 96.8763 64.5866 96.4153 65.7225 95.5662C66.8584 94.7171 67.6677 93.5282 68.0225 92.1875H83.1025C83.4573 93.5282 84.2666 94.7171 85.4025 95.5662C86.5384 96.4153 87.9362 96.8763 89.375 96.8763C90.8138 96.8763 92.2116 96.4153 93.3475 95.5662C94.4834 94.7171 95.2927 93.5282 95.6475 92.1875H95.875C97.1667 92.1838 98.4045 91.6887 99.3179 90.8105C100.231 89.9322 100.746 88.7421 100.75 87.5V42.1875C100.746 40.9454 100.231 39.7553 99.3179 38.877C98.4045 37.9988 97.1667 37.5037 95.875 37.5ZM68.25 10.9375C68.2539 9.69544 68.7687 8.50531 69.6821 7.62704C70.5955 6.74876 71.8333 6.25371 73.125 6.25H79.625C80.9167 6.25371 82.1545 6.74876 83.0679 7.62704C83.9813 8.50531 84.4961 9.69544 84.5 10.9375V37.5H83.655C81.5976 28.3897 76.1111 20.3318 68.25 14.875V10.9375ZM68.25 18.8281C70.3024 20.4652 72.1607 22.3149 73.7913 24.3438L68.25 30.4375V18.8281ZM68.25 34.4375L68.6888 34.3125C68.9917 34.2349 69.2635 34.0716 69.4688 33.8438L75.7087 26.9688C77.8367 30.2087 79.3856 33.7683 80.2913 37.5H68.25V34.4375ZM45.5 10.9375C52.4293 10.9269 59.2094 12.8719 65 16.5312V16.7969C64.8375 17 64.7075 17.1406 64.6425 17.2188C62.8963 17.7425 61.2962 18.64 59.9625 19.8438C58.9937 20.602 57.961 21.2815 56.875 21.875C55.6031 21.9961 54.3555 22.2907 53.17 22.75C52.6986 21.5754 51.8693 20.5651 50.7907 19.8513C49.712 19.1376 48.4344 18.7537 47.125 18.75H37.7812L34.8075 12.5469C38.2646 11.4859 41.8711 10.9431 45.5 10.9375ZM6.5 34.375V15.625H10.1887L11.9113 20.7969C12.0209 21.1111 12.2306 21.3843 12.5105 21.5777C12.7904 21.7712 13.1265 21.8752 13.4712 21.875H22.75C23.181 21.875 23.5943 21.7104 23.899 21.4174C24.2038 21.1243 24.375 20.7269 24.375 20.3125V6.25H28.21L35.2787 20.9688C35.4093 21.24 35.618 21.4695 35.8801 21.6301C36.1422 21.7908 36.4467 21.8757 36.7575 21.875H47.125C47.987 21.875 48.8136 22.2042 49.4231 22.7903C50.0326 23.3763 50.375 24.1712 50.375 25C50.375 25.8288 50.0326 26.6237 49.4231 27.2097C48.8136 27.7958 47.987 28.125 47.125 28.125H36.7575C36.4467 28.1243 36.1422 28.2092 35.8801 28.3699C35.618 28.5305 35.4093 28.76 35.2787 29.0312L28.21 43.75H24.375V29.6875C24.375 29.2731 24.2038 28.8757 23.899 28.5826C23.5943 28.2896 23.181 28.125 22.75 28.125H13.4712C13.1265 28.1248 12.7904 28.2288 12.5105 28.4223C12.2306 28.6157 12.0209 28.8889 11.9113 29.2031L10.1887 34.375H6.5ZM9.75 45.3125C9.75835 42.6817 10.08 40.0604 10.7088 37.5H11.375C11.7177 37.4998 12.0515 37.3954 12.3288 37.2017C12.606 37.0081 12.8125 36.7351 12.9187 36.4219L14.6413 31.25H21.125V45.3125C21.125 45.7269 21.2962 46.1243 21.601 46.4174C21.9057 46.7104 22.319 46.875 22.75 46.875H29.25C29.5601 46.8727 29.8633 46.7865 30.1248 46.6263C30.3864 46.466 30.5957 46.2381 30.7288 45.9688L32.7112 41.8438L33.3613 42.3594C32.0728 43.5854 31.2052 45.1611 30.875 46.875C30.8242 47.4257 30.7429 47.9733 30.6313 48.5156C30.16 51 29.575 54.0938 31.3463 55.7969C32.0938 56.5 33.345 60.5781 34.0925 64.0625L32.5975 71.2656L29.3475 75.9531C23.4566 73.0844 18.5071 68.7028 15.0479 63.2944C11.5887 57.8859 9.75493 51.6619 9.75 45.3125ZM50.375 79.3438C48.7595 79.5598 47.131 79.6746 45.5 79.6875C40.9923 79.6918 36.5251 78.8699 32.3375 77.2656L35.4738 72.7344C35.5943 72.5707 35.6774 72.3843 35.7175 72.1875L37.3425 64.375C37.3913 64.1693 37.3913 63.9557 37.3425 63.75C36.9362 61.8125 35.4737 55.3438 33.6537 53.5781C33.085 53.0312 33.6212 50.1562 33.8162 49.0625C33.9835 48.3536 34.0868 47.6322 34.125 46.9062C34.7946 45.5387 35.739 44.312 36.9037 43.2969C37.064 43.1382 37.1885 42.9495 37.2696 42.7425C37.3507 42.5355 37.3866 42.3147 37.375 42.0938C37.3605 41.8749 37.298 41.6616 37.1915 41.4677C37.0851 41.2738 36.9372 41.1037 36.7575 40.9688L34.1087 38.9219L37.7812 31.25H47.125C48.6764 31.2464 50.1751 30.7086 51.3496 29.7341C52.5242 28.7595 53.2968 27.4126 53.5275 25.9375C54.6103 25.5249 55.7311 25.211 56.875 25C58.1587 25 59.5562 24.0469 61.9125 22.3438C62.8813 21.5855 63.914 20.906 65 20.3125V32.0781L56.485 34.4219L43.485 37.5469C43.2348 37.6077 43.0029 37.7242 42.8081 37.8871C42.6133 38.0499 42.4611 38.2545 42.3638 38.4844L39.1138 46.2969C39.0792 46.3832 39.0521 46.472 39.0325 46.5625L37.4075 54.375C37.3616 54.5914 37.364 54.8147 37.4144 55.0302C37.4648 55.2456 37.5621 55.4484 37.7 55.625L42.5262 61.7969L45.7113 66.4062L50.375 75.375V79.3438ZM65 35.3281V37.5H57.07L57.3138 37.4375L65 35.3281ZM50.375 42.1875V68.375L48.5713 64.9219C48.5448 64.8665 48.5121 64.8141 48.4738 64.7656L45.175 60L40.7388 54.3125L42.185 47.3281L45.0775 40.3906L52 38.7188C51.4909 39.1547 51.0831 39.689 50.8031 40.2866C50.5231 40.8843 50.3772 41.532 50.375 42.1875ZM61.75 93.75C61.1828 93.7467 60.6264 93.6008 60.1361 93.3266C59.6458 93.0525 59.2386 92.6598 58.955 92.1875H64.545C64.2614 92.6598 63.8542 93.0525 63.3639 93.3266C62.8736 93.6008 62.3172 93.7467 61.75 93.75ZM89.375 93.75C88.8045 93.752 88.2438 93.6084 87.7499 93.3339C87.256 93.0594 86.8467 92.6638 86.5638 92.1875H92.1862C91.9033 92.6638 91.494 93.0594 91.0001 93.3339C90.5062 93.6084 89.9455 93.752 89.375 93.75ZM97.5 87.5C97.5 87.9144 97.3288 88.3118 97.024 88.6049C96.7193 88.8979 96.306 89.0625 95.875 89.0625H55.25C54.819 89.0625 54.4057 88.8979 54.101 88.6049C53.7962 88.3118 53.625 87.9144 53.625 87.5V42.1875C53.625 41.7731 53.7962 41.3757 54.101 41.0826C54.4057 40.7896 54.819 40.625 55.25 40.625H95.875C96.306 40.625 96.7193 40.7896 97.024 41.0826C97.3288 41.3757 97.5 41.7731 97.5 42.1875V87.5Z" fill="#1E877E"/>
<path d="M92.625 67.2609V46.8749H89.375V66.014L82.875 63.9312V46.8749H79.625V53.7296C79.6093 53.3454 79.4454 52.9805 79.1651 52.7062L73.125 46.8984V46.8749H73.1006L71.123 44.9718C70.8125 44.6895 70.4014 44.5322 69.9741 44.5322C69.5468 44.5322 69.1357 44.6895 68.8252 44.9718L63.375 50.2125V46.8749H60.125V53.3375L57.3349 56.0218C57.0302 56.3148 56.8591 56.7122 56.8591 57.1265C56.8591 57.5408 57.0302 57.9382 57.3349 58.2312L60.125 60.914V82.8124H63.375V64.039L65.377 65.9656C65.6817 66.2585 66.095 66.4231 66.5259 66.4231C66.9568 66.4231 67.37 66.2585 67.6747 65.9656L69.875 63.8499V82.8124H73.125V60.7249L79.1651 54.9156C79.4457 54.6421 79.6097 54.2776 79.625 53.8937V62.9453C79.0686 62.8307 78.4906 62.8601 77.9499 63.0304C77.4092 63.2006 76.9251 63.5057 76.547 63.9146C76.1689 64.3234 75.9103 64.8213 75.7976 65.3576C75.6849 65.8938 75.7221 66.4492 75.9054 66.9671L79.625 77.6968V82.8124H82.875V80.3124H82.8847C83.3101 80.3125 83.7312 80.2316 84.1239 80.0745C84.5166 79.9173 84.873 79.687 85.1728 79.3968L89.375 75.3578V82.8124H92.625V72.2328L92.95 71.9203C93.2775 71.6082 93.5315 71.2321 93.6946 70.8174C93.8577 70.4028 93.9262 69.9592 93.8953 69.5169C93.8645 69.0745 93.7351 68.6437 93.5159 68.2536C93.2968 67.8636 92.9929 67.5234 92.625 67.2562V67.2609ZM66.5259 62.6562L60.775 57.1265L69.9741 48.2812L75.725 53.8109L66.5259 62.6562ZM82.875 77.1874L78.9896 65.9796L90.6522 69.7093L82.875 77.1874Z" fill="url(#paint0_linear_1_887)"/>
<defs>
<linearGradient id="paint0_linear_1_887" x1="33.4718" y1="111.787" x2="104.56" y2="27.6577" gradientUnits="userSpaceOnUse">
<stop offset="0.110628" stop-color="#145953"/>
<stop offset="0.787711" stop-color="#E88224"/>
</linearGradient>
</defs>
</svg>
