<svg width="85" height="100" viewBox="0 0 85 100" fill="none" xmlns="http://www.w3.org/2000/svg">
<g clip-path="url(#clip0_232_123)">
<path d="M34.321 23.1973C34.321 23.1973 53.7188 30.2918 64.1858 44.9461C72.5135 56.6053 66.7703 89.3408 66.7703 89.3408" stroke="#1E877E" stroke-width="2.5"/>
<path d="M35.5 23C35.5 23 14.4817 45.7811 19.2399 61.4349C23.9828 77.0385 52.4854 89.8291 55.9966 90.8071C59.1543 91.6865 77.5332 98.0556 81.2037 99.33C81.6 99.4677 82.0531 99.4161 82.3891 99.2013L83.4556 98.5201C84.1408 98.0825 83.9656 97.2255 83.1421 96.9708C80.5628 96.1735 75.8545 94.6578 72.652 93.2735C68.6921 91.5618 63.1234 88.3605 62.394 87.9385M62.394 87.9385C62.3395 87.9071 62.4405 87.9771 62.394 87.9385ZM62.394 87.9385C58.0579 84.365 46.0811 77.9515 42.0051 48.1255C41.9569 47.7726 42.1803 47.4201 42.5749 47.2439L43.9358 46.8609C44.6917 46.5237 47.1115 83.6704 67.5 89.5" stroke="#1E877E" stroke-width="2.5"/>
<path d="M40.6842 18.9435C45.985 18.4145 49.623 13.9594 48.8099 8.9928C47.9968 4.02622 43.0405 0.428897 37.7397 0.957953C32.439 1.48701 28.801 5.9421 29.6141 10.9087C30.4272 15.8753 35.3835 19.4726 40.6842 18.9435Z" fill="#1E877E"/>
<path d="M25.6748 25.8222C28.9971 25.1948 30.8527 21.9818 29.8193 18.6457C28.786 15.3096 25.255 13.1138 21.9326 13.7412C18.6103 14.3686 16.7548 17.5816 17.7881 20.9177C18.8215 24.2538 22.3525 26.4496 25.6748 25.8222Z" fill="#1E877E"/>
<path d="M18.9011 36.4862C21.7885 35.6807 22.9839 32.5245 21.571 29.4365C20.1581 26.3486 16.672 24.4982 13.7845 25.3036C10.8971 26.109 9.70175 29.2653 11.1146 32.3532C12.5275 35.4412 16.0136 37.2916 18.9011 36.4862Z" fill="#1E877E"/>
<path d="M14.2717 45.9163C16.7616 44.7753 17.3027 41.8851 15.4805 39.4608C13.6582 37.0365 10.1626 35.9961 7.67274 37.137C5.18291 38.278 4.64174 41.1682 6.464 43.5925C8.28626 46.0168 11.7819 47.0572 14.2717 45.9163Z" fill="#1E877E"/>
<path d="M11.1072 56.1367C13.597 54.9958 14.1382 52.1056 12.3159 49.6812C10.4937 47.2569 6.99804 46.2165 4.50821 47.3575C2.01838 48.4984 1.4772 51.3886 3.29947 53.813C5.12173 56.2373 8.61737 57.2777 11.1072 56.1367Z" fill="#1E877E"/>
</g>
<defs>
<clipPath id="clip0_232_123">
<rect width="85" height="100" fill="white"/>
</clipPath>
</defs>
</svg>
