<svg width="38" height="46" viewBox="0 0 38 46" fill="none" xmlns="http://www.w3.org/2000/svg">
<ellipse cx="19.3784" cy="8.5" rx="1.37838" ry="2.5"/>
<path d="M17.2971 14.0582C17.2971 14.0582 19.86 13.6005 19.86 14.0582C19.86 14.516 15.1224 23.3494 19.0748 25.4999C20.9126 26.4999 22.6336 23.8981 22.6336 23.8981C22.6336 23.8981 23.5649 26.5698 22.6335 27.4999C21.3959 28.736 19.4776 29.4392 18.0222 28.5239C13.4508 25.6487 17.2971 14.0582 17.2971 14.0582Z"/>
<path d="M36 37.619V41.8095H6.19048C3.87614 41.8095 2 39.9333 2 37.619V37.619C2 35.3047 3.87614 33.4285 6.19048 33.4285H36" stroke="#656060" stroke-width="2.5"/>
<path d="M7.53339 39.0676H11.5778C11.7159 39.0676 11.8278 39.1795 11.8278 39.3176V44.09C11.8278 44.2918 11.6012 44.4104 11.4354 44.2955L10.5527 43.6835C9.95298 43.2677 9.15825 43.2677 8.55855 43.6835L7.67583 44.2955C7.51003 44.4104 7.28339 44.2918 7.28339 44.09V39.3176C7.28339 39.1795 7.39532 39.0676 7.53339 39.0676Z" stroke="#656060" stroke-width="1.5"/>
<line x1="4.2667" y1="38.2659" x2="32.2223" y2="38.2659" stroke="#656060" stroke-width="1.5"/>
<line x1="7.28888" y1="36.1708" x2="22.4" y2="36.1708" stroke="#656060" stroke-width="1.5"/>
<line x1="24.6667" y1="36.1708" x2="32.2222" y2="36.1708" stroke="#656060" stroke-width="1.5"/>
<path d="M2 36.5714V9C2 5.13401 5.13401 2 9 2H34C35.1046 2 36 2.89543 36 4V36.5714" stroke="#656060" stroke-width="2.5"/>
</svg>
