<svg width="46" height="60" viewBox="0 0 46 60" fill="none" xmlns="http://www.w3.org/2000/svg">
<path d="M2.0913 9.79331L37.1837 4.79779C38.9906 4.54058 40.6065 5.9428 40.6065 7.76785V8.87951" stroke="#B0AEAE" stroke-width="2.5"/>
<path d="M1.59751 9.33631L33.1082 1.53381C34.912 1.08716 36.6562 2.45215 36.6562 4.31045V4.31045" stroke="#B0AEAE" stroke-width="2.5"/>
<path d="M2.11617 9.56882H39.5444C42.0297 9.56882 44.0444 11.5835 44.0444 14.0688V53.1383C44.0444 55.6236 42.0297 57.6383 39.5444 57.6383H2.11617C1.84003 57.6383 1.61617 57.4144 1.61617 57.1383V10.0688C1.61617 9.79267 1.84003 9.56882 2.11617 9.56882Z" stroke="#B0AEAE" stroke-width="3"/>
<path d="M26.3943 26.6021C26.3943 28.9145 25.9078 30.9585 25.1692 32.3877C24.4043 33.8677 23.5252 34.4334 22.8304 34.4334C22.1356 34.4334 21.2565 33.8677 20.4916 32.3877C19.753 30.9585 19.2665 28.9145 19.2665 26.6021C19.2665 24.2896 19.753 22.2457 20.4916 20.8165C21.2565 19.3365 22.1356 18.7708 22.8304 18.7708C23.5252 18.7708 24.4043 19.3365 25.1692 20.8165C25.9078 22.2457 26.3943 24.2896 26.3943 26.6021Z" stroke="#B0AEAE" stroke-width="2"/>
<path d="M26.3943 26.6021C26.3943 28.9145 25.9078 30.9585 25.1692 32.3877C24.4043 33.8677 23.5252 34.4334 22.8304 34.4334C22.1356 34.4334 21.2565 33.8677 20.4916 32.3877C19.753 30.9585 19.2665 28.9145 19.2665 26.6021C19.2665 24.2896 19.753 22.2457 20.4916 20.8165C21.2565 19.3365 22.1356 18.7708 22.8304 18.7708C23.5252 18.7708 24.4043 19.3365 25.1692 20.8165C25.9078 22.2457 26.3943 24.2896 26.3943 26.6021Z" stroke="#B0AEAE" stroke-width="2"/>
<path d="M17.688 34.3997C23.0292 36.6895 29.6615 35.0547 32.5015 30.7482C35.3415 26.4417 33.3138 21.0943 27.9725 18.8045C22.6313 16.5147 15.999 18.1496 13.159 22.456C11.6532 24.7393 11.5158 27.3152 12.5151 29.5729C13.5145 31.8305 15.0814 32.8655 15.0814 32.8655" stroke="#B0AEAE" stroke-width="2"/>
<path d="M17.688 34.3997C23.0292 36.6895 29.6615 35.0547 32.5015 30.7482C35.3415 26.4417 33.3138 21.0943 27.9725 18.8045C22.6313 16.5147 15.999 18.1496 13.159 22.456C11.6532 24.7393 11.5158 27.3152 12.5151 29.5729C13.5145 31.8305 15.0814 32.8655 15.0814 32.8655" stroke="#B0AEAE" stroke-width="2"/>
<path d="M12.7898 26.6021H32.871" stroke="#B0AEAE" stroke-width="2"/>
<path d="M9.1646 48.0054H8.09234V47.2642H9.1646C9.32281 47.2642 9.44976 47.2378 9.54546 47.1851C9.64312 47.1323 9.71441 47.0601 9.75933 46.9683C9.8062 46.8745 9.82964 46.769 9.82964 46.6519C9.82964 46.5308 9.8062 46.4185 9.75933 46.3149C9.71441 46.2095 9.64312 46.1245 9.54546 46.0601C9.44976 45.9956 9.32281 45.9634 9.1646 45.9634H8.43804V49.4878H7.48296V45.2222H9.1646C9.50445 45.2222 9.79546 45.2837 10.0376 45.4067C10.2818 45.5298 10.4683 45.6987 10.5972 45.9136C10.7281 46.1265 10.7935 46.3706 10.7935 46.646C10.7935 46.9214 10.7281 47.1606 10.5972 47.3638C10.4683 47.5669 10.2818 47.7251 10.0376 47.8384C9.79546 47.9497 9.50445 48.0054 9.1646 48.0054ZM12.6421 46.0337L11.5406 49.4878H10.521L12.1001 45.2222H12.7447L12.6421 46.0337ZM13.5562 49.4878L12.4517 46.0337L12.3375 45.2222H12.9908L14.5757 49.4878H13.5562ZM13.5093 47.8999V48.6382H11.2857V47.8999H13.5093ZM17.1421 48.3628C17.1421 48.2905 17.1314 48.2261 17.1099 48.1694C17.0884 48.1108 17.0494 48.0571 16.9927 48.0083C16.9361 47.9595 16.856 47.9106 16.7525 47.8618C16.649 47.811 16.5132 47.7593 16.3453 47.7065C16.1539 47.644 15.9712 47.5737 15.7974 47.4956C15.6255 47.4155 15.4722 47.3228 15.3375 47.2173C15.2027 47.1118 15.0962 46.9888 15.0181 46.8481C14.9419 46.7075 14.9039 46.5435 14.9039 46.356C14.9039 46.1743 14.9439 46.0103 15.024 45.8638C15.1041 45.7173 15.2164 45.5923 15.3609 45.4888C15.5054 45.3833 15.6753 45.3032 15.8707 45.2485C16.066 45.1919 16.2808 45.1636 16.5152 45.1636C16.8277 45.1636 17.1021 45.2192 17.3384 45.3306C17.5767 45.4399 17.7623 45.5942 17.8951 45.7935C18.0279 45.9907 18.0943 46.2202 18.0943 46.4819H17.1451C17.1451 46.3667 17.1207 46.2651 17.0718 46.1772C17.025 46.0874 16.9527 46.0171 16.855 45.9663C16.7593 45.9155 16.6392 45.8901 16.4947 45.8901C16.3541 45.8901 16.2359 45.9116 16.1402 45.9546C16.0464 45.9956 15.9751 46.0522 15.9263 46.1245C15.8794 46.1968 15.856 46.2759 15.856 46.3618C15.856 46.4302 15.8736 46.4927 15.9087 46.5493C15.9459 46.604 15.9986 46.6558 16.0669 46.7046C16.1373 46.7515 16.2232 46.7964 16.3248 46.8394C16.4263 46.8823 16.5425 46.9233 16.6734 46.9624C16.9019 47.0347 17.1041 47.1147 17.2798 47.2026C17.4576 47.2905 17.607 47.3901 17.7281 47.5015C17.8492 47.6128 17.94 47.7388 18.0005 47.8794C18.063 48.02 18.0943 48.1792 18.0943 48.3569C18.0943 48.5464 18.0572 48.7144 17.983 48.8608C17.9107 49.0073 17.8052 49.1323 17.6666 49.2358C17.5298 49.3374 17.3658 49.4146 17.1744 49.4673C16.983 49.52 16.7691 49.5464 16.5328 49.5464C16.3179 49.5464 16.106 49.519 15.897 49.4644C15.688 49.4077 15.4986 49.3218 15.3287 49.2065C15.1607 49.0913 15.0259 48.9448 14.9244 48.7671C14.8248 48.5874 14.775 48.3745 14.775 48.1284H15.73C15.73 48.2573 15.7486 48.3667 15.7857 48.4565C15.8228 48.5444 15.8755 48.6157 15.9439 48.6704C16.0142 48.7251 16.0992 48.7642 16.1988 48.7876C16.2984 48.811 16.4097 48.8228 16.5328 48.8228C16.6753 48.8228 16.7906 48.8032 16.8785 48.7642C16.9683 48.7231 17.0347 48.6675 17.0777 48.5972C17.1207 48.5269 17.1421 48.4487 17.1421 48.3628ZM20.8687 48.3628C20.8687 48.2905 20.858 48.2261 20.8365 48.1694C20.815 48.1108 20.7759 48.0571 20.7193 48.0083C20.6626 47.9595 20.5826 47.9106 20.4791 47.8618C20.3755 47.811 20.2398 47.7593 20.0718 47.7065C19.8804 47.644 19.6978 47.5737 19.524 47.4956C19.3521 47.4155 19.1988 47.3228 19.064 47.2173C18.9293 47.1118 18.8228 46.9888 18.7447 46.8481C18.6685 46.7075 18.6304 46.5435 18.6304 46.356C18.6304 46.1743 18.6705 46.0103 18.7505 45.8638C18.8306 45.7173 18.9429 45.5923 19.0875 45.4888C19.232 45.3833 19.4019 45.3032 19.5972 45.2485C19.7925 45.1919 20.0074 45.1636 20.2418 45.1636C20.5543 45.1636 20.8287 45.2192 21.065 45.3306C21.3033 45.4399 21.4888 45.5942 21.6216 45.7935C21.7544 45.9907 21.8209 46.2202 21.8209 46.4819H20.8716C20.8716 46.3667 20.8472 46.2651 20.7984 46.1772C20.7515 46.0874 20.6793 46.0171 20.5816 45.9663C20.4859 45.9155 20.3658 45.8901 20.2212 45.8901C20.0806 45.8901 19.9625 45.9116 19.8668 45.9546C19.773 45.9956 19.7017 46.0522 19.6529 46.1245C19.606 46.1968 19.5826 46.2759 19.5826 46.3618C19.5826 46.4302 19.6001 46.4927 19.6353 46.5493C19.6724 46.604 19.7251 46.6558 19.7935 46.7046C19.8638 46.7515 19.9498 46.7964 20.0513 46.8394C20.1529 46.8823 20.2691 46.9233 20.4 46.9624C20.6285 47.0347 20.8306 47.1147 21.0064 47.2026C21.1841 47.2905 21.3335 47.3901 21.4546 47.5015C21.5757 47.6128 21.6666 47.7388 21.7271 47.8794C21.7896 48.02 21.8209 48.1792 21.8209 48.3569C21.8209 48.5464 21.7837 48.7144 21.7095 48.8608C21.6373 49.0073 21.5318 49.1323 21.3931 49.2358C21.2564 49.3374 21.0923 49.4146 20.9009 49.4673C20.7095 49.52 20.4957 49.5464 20.2593 49.5464C20.0445 49.5464 19.8326 49.519 19.6236 49.4644C19.4146 49.4077 19.2251 49.3218 19.0552 49.2065C18.8873 49.0913 18.7525 48.9448 18.6509 48.7671C18.5513 48.5874 18.5015 48.3745 18.5015 48.1284H19.4566C19.4566 48.2573 19.4751 48.3667 19.5123 48.4565C19.5494 48.5444 19.6021 48.6157 19.6705 48.6704C19.7408 48.7251 19.8257 48.7642 19.9253 48.7876C20.025 48.811 20.1363 48.8228 20.2593 48.8228C20.4019 48.8228 20.5171 48.8032 20.605 48.7642C20.6949 48.7231 20.7613 48.6675 20.8043 48.5972C20.8472 48.5269 20.8687 48.4487 20.8687 48.3628ZM24.065 48.0054H22.9927V47.2642H24.065C24.2232 47.2642 24.3501 47.2378 24.4459 47.1851C24.5435 47.1323 24.6148 47.0601 24.6597 46.9683C24.7066 46.8745 24.73 46.769 24.73 46.6519C24.73 46.5308 24.7066 46.4185 24.6597 46.3149C24.6148 46.2095 24.5435 46.1245 24.4459 46.0601C24.3501 45.9956 24.2232 45.9634 24.065 45.9634H23.3384V49.4878H22.3834V45.2222H24.065C24.4048 45.2222 24.6959 45.2837 24.938 45.4067C25.1822 45.5298 25.3687 45.6987 25.4976 45.9136C25.6285 46.1265 25.6939 46.3706 25.6939 46.646C25.6939 46.9214 25.6285 47.1606 25.4976 47.3638C25.3687 47.5669 25.1822 47.7251 24.938 47.8384C24.6959 47.9497 24.4048 48.0054 24.065 48.0054ZM29.8306 47.2612V47.4517C29.8306 47.7759 29.7857 48.0669 29.6959 48.3247C29.608 48.5825 29.482 48.8022 29.3179 48.9839C29.1558 49.1655 28.9625 49.3052 28.7378 49.4028C28.5152 49.4985 28.2681 49.5464 27.9966 49.5464C27.7251 49.5464 27.4771 49.4985 27.2525 49.4028C27.0279 49.3052 26.8326 49.1655 26.6666 48.9839C26.5025 48.8022 26.3755 48.5825 26.2857 48.3247C26.1959 48.0669 26.1509 47.7759 26.1509 47.4517V47.2612C26.1509 46.937 26.1959 46.646 26.2857 46.3882C26.3755 46.1284 26.5015 45.9077 26.6636 45.7261C26.8277 45.5444 27.022 45.4058 27.2466 45.3101C27.4712 45.2124 27.7193 45.1636 27.9908 45.1636C28.2623 45.1636 28.5103 45.2124 28.7349 45.3101C28.9595 45.4058 29.1529 45.5444 29.315 45.7261C29.4791 45.9077 29.606 46.1284 29.6959 46.3882C29.7857 46.646 29.8306 46.937 29.8306 47.2612ZM28.8668 47.4517V47.2554C28.8668 47.0386 28.8472 46.8472 28.8082 46.6812C28.7691 46.5132 28.7125 46.3726 28.6382 46.2593C28.564 46.146 28.4722 46.061 28.3628 46.0044C28.2535 45.9458 28.1294 45.9165 27.9908 45.9165C27.8462 45.9165 27.7203 45.9458 27.6128 46.0044C27.5054 46.061 27.4146 46.146 27.3404 46.2593C27.2681 46.3726 27.2125 46.5132 27.1734 46.6812C27.1363 46.8472 27.1177 47.0386 27.1177 47.2554V47.4517C27.1177 47.6665 27.1363 47.8579 27.1734 48.0259C27.2125 48.1919 27.2691 48.3325 27.3433 48.4478C27.4175 48.563 27.5084 48.6499 27.6158 48.7085C27.7251 48.7671 27.8521 48.7964 27.9966 48.7964C28.1353 48.7964 28.2584 48.7671 28.3658 48.7085C28.4751 48.6499 28.5669 48.563 28.6412 48.4478C28.7154 48.3325 28.771 48.1919 28.8082 48.0259C28.8472 47.8579 28.8668 47.6665 28.8668 47.4517ZM30.4166 45.2222H32.0543C32.3804 45.2222 32.6626 45.271 32.9009 45.3687C33.1412 45.4663 33.3257 45.6108 33.4546 45.8022C33.5835 45.9937 33.648 46.23 33.648 46.5112C33.648 46.7456 33.6099 46.9448 33.5337 47.1089C33.4576 47.2729 33.3501 47.4087 33.2115 47.5161C33.0748 47.6235 32.9146 47.7104 32.731 47.7769L32.4205 47.9468H31.0259L31.0201 47.2056H32.0572C32.1998 47.2056 32.3179 47.1802 32.4117 47.1294C32.5054 47.0786 32.5757 47.0073 32.6226 46.9155C32.6714 46.8218 32.6959 46.7124 32.6959 46.5874C32.6959 46.4585 32.6714 46.3472 32.6226 46.2534C32.5738 46.1597 32.5015 46.0884 32.4058 46.0396C32.3121 45.9888 32.1949 45.9634 32.0543 45.9634H31.3716V49.4878H30.4166V45.2222ZM32.7779 49.4878L31.8199 47.5923L32.8277 47.5894L33.8003 49.4438V49.4878H32.7779ZM36.1236 45.2222V49.4878H35.1714V45.2222H36.1236ZM37.4214 45.2222V45.9634H33.9V45.2222H37.4214Z" fill="#B0AEAE"/>
</svg>
