<svg width="106" height="98" viewBox="0 0 106 98" fill="none" xmlns="http://www.w3.org/2000/svg">
<g clip-path="url(#clip0_1_895)">
<path d="M101.488 63.3726C92.5995 63.2681 85.4102 63.2166 80.5747 63.1953L73.8614 18.8226C73.7387 18.0196 72.9372 17.4529 72.0702 17.5711C71.2032 17.6832 70.598 18.4257 70.719 19.2302L72.1651 28.7832C71.3766 28.406 70.4965 28.1711 69.5511 28.1666L61.6223 28.1272C60.2662 28.1196 58.9511 27.7514 57.8223 27.059L50.489 22.5711C45.2169 18.3166 38.973 18.7241 34.6496 19.8135C33.7679 20.0363 32.9745 20.3832 32.2711 20.8226V20.8196C32.2809 19.5772 31.764 18.4075 30.8185 17.5241C29.8714 16.6438 28.6118 16.1575 27.2688 16.1575H22.6182C21.182 16.1575 19.911 16.4332 18.8412 16.9726C16.5543 18.1287 15.3716 20.2211 15.7577 22.4332C15.9818 23.7347 16.7081 24.8484 17.755 25.6044L15.1639 28.212C14.3934 28.9893 13.8144 29.9332 13.4921 30.9484C13.2876 31.5893 13.1846 32.2514 13.1846 32.9181V48.1363C13.1846 51.3469 16.0063 54.012 19.5282 54.0757L26.5949 53.9772C27.3163 53.9666 28.0197 53.8211 28.674 53.5787C28.4793 54.8453 28.1489 55.9257 27.5993 57.2681L20.1465 73.7741C19.2534 75.7514 19.4857 77.9969 20.7681 79.7832C21.0331 80.1529 21.3456 80.4847 21.6809 80.7908L20.7583 80.8044C20.2202 80.8135 19.7229 81.0726 19.4382 81.4969L13.659 90.0893L3.81306 94.7408C3.03114 95.109 2.72361 95.9923 3.12111 96.7166C3.3992 97.2226 3.95537 97.515 4.53281 97.515C4.77327 97.515 5.02191 97.4635 5.25093 97.3544L15.4894 92.5196C15.7462 92.3984 15.9638 92.2135 16.1143 91.9863L21.6695 83.7272L37.558 83.4893L58.4718 83.8999C59.0394 83.8817 59.4402 83.7029 59.7477 83.3438L70.9153 70.3181C73.1989 67.6575 76.6046 66.1332 80.2705 66.1332C80.2901 66.1332 80.3097 66.1332 80.3294 66.1332C85.1582 66.156 92.4327 66.206 101.444 66.312C101.451 66.312 101.459 66.312 101.466 66.312C102.333 66.312 103.041 65.6666 103.052 64.862C103.064 64.0499 102.364 63.3832 101.488 63.3726ZM26.5442 51.0363L19.5348 51.1347C17.7812 51.1029 16.3564 49.7575 16.3564 48.1347V32.9166C16.3564 32.5317 16.4169 32.1484 16.5331 31.7802C16.7212 31.1953 17.0549 30.6484 17.4998 30.1999L21.0855 26.5893H24.1935C25.0687 26.5893 25.7786 25.9317 25.7786 25.1196C25.7786 24.3075 25.0687 23.6499 24.1935 23.6499H20.6029C19.5266 23.4317 19.0031 22.6166 18.8902 21.962C18.8101 21.4984 18.7921 20.3408 20.3592 19.5484C20.9595 19.2453 21.7185 19.0908 22.6182 19.0908H27.2688C27.7612 19.0908 28.2225 19.2681 28.5677 19.5923C28.9128 19.9135 29.1026 20.3408 29.0977 20.7953L28.9226 48.8832C28.9537 49.5847 28.6298 50.056 28.3517 50.3287C27.9052 50.7681 27.2476 51.0257 26.5442 51.0363ZM23.0714 74.9044L30.5437 58.3529C31.7558 55.3893 32.0879 53.4211 32.0879 49.2044C32.0879 49.1802 32.0748 49.1605 32.0732 49.1363C32.0748 49.0347 32.0977 48.9332 32.0928 48.8317L32.2351 26.4938C32.2351 26.4938 32.2351 26.4938 32.2351 26.4923C32.2351 24.5984 33.4489 23.159 35.4855 22.6454C39.0711 21.7363 44.2436 21.3817 48.4705 24.8393C48.5261 24.8847 48.585 24.9272 48.6471 24.9635L56.0704 29.506C57.716 30.5135 59.6283 31.0529 61.6027 31.062L69.5314 31.1014C70.9856 31.109 72.1683 32.2105 72.1683 33.559C72.1683 34.9135 70.9775 36.015 69.5167 36.015H60.9631C59.872 36.015 58.7809 35.7726 57.806 35.3135L48.549 30.9544C48.0582 30.7241 47.4694 30.7453 47.0015 31.0105C46.532 31.2787 46.2441 31.7529 46.2441 32.2635V47.2272C46.2441 47.5681 46.3717 47.8969 46.6056 48.159L54.5818 57.1499C56.5235 59.2332 57.3152 61.9772 56.7411 64.7408L54.7192 77.2332C54.451 78.5378 53.3108 79.515 51.8877 79.6681C50.8702 79.765 49.8854 79.4499 49.1755 78.7757C48.4623 78.0999 48.1335 77.1772 48.2774 76.2211L49.2033 69.3605C49.7562 65.6953 48.4754 62.0741 45.6863 59.4241L42.3918 56.2938C42.0238 55.9453 41.4921 55.7802 40.9719 55.8741C40.4534 55.9605 40.015 56.2832 39.8023 56.7287L29.9254 77.6196C29.3316 78.8756 27.9902 79.6878 26.5098 79.6878C25.2404 79.6878 24.1085 79.1256 23.4067 78.1469C22.7049 77.1681 22.5806 75.9893 23.0714 74.9044ZM31.4908 80.6408C32.0388 80.109 32.5034 79.4984 32.8338 78.8014L41.7653 59.909L43.4175 61.4787C45.5129 63.4711 46.4797 66.1954 46.0609 68.9772L45.1351 75.8378C44.8635 77.6363 45.4868 79.4075 46.8216 80.7302L37.5678 80.5484L31.4908 80.6408ZM68.4338 68.4893L57.7553 80.9453L56.0197 80.912C56.9325 80.0772 57.5884 78.9878 57.8485 77.7317L59.8704 65.2393C60.6147 61.6484 59.5628 58.0014 57.0094 55.2605L49.4176 46.7044V34.6635L56.3698 37.9363C57.7864 38.6029 59.3764 38.9575 60.9647 38.9575H69.5183C71.0527 38.9575 72.4399 38.3938 73.4819 37.4923L77.4094 63.4635C73.8908 64.0847 70.7157 65.8272 68.4338 68.4893Z" fill="white"/>
<path d="M39.377 17.3757C44.3875 17.3757 48.4623 13.6 48.4623 8.95905C48.4623 4.31814 44.3859 0.54541 39.377 0.54541C34.3682 0.54541 30.2918 4.31965 30.2918 8.96056C30.2918 13.6015 34.3666 17.3757 39.377 17.3757ZM39.377 3.48329C42.6372 3.48329 45.2888 5.93935 45.2888 8.95905C45.2888 11.9787 42.6372 14.4363 39.377 14.4363C36.1169 14.4363 33.4652 11.9787 33.4652 8.95905C33.4652 5.93935 36.1169 3.48329 39.377 3.48329Z" fill="white"/>
</g>
<defs>
<clipPath id="clip0_1_895">
<rect x="0.654322" y="0.54541" width="104.691" height="96.9697" fill="white"/>
</clipPath>
</defs>
</svg>
