<svg width="64" height="60" viewBox="0 0 64 60" fill="none" xmlns="http://www.w3.org/2000/svg">
<g clip-path="url(#clip0_1_730)">
<path d="M41.5709 0.568848H23.1363C16.6025 0.568848 11.2854 5.48871 11.2854 11.5344V48.0861C11.2854 54.1317 16.6025 59.0516 23.1363 59.0516H41.5709C48.1047 59.0516 53.4217 54.1317 53.4217 48.0861V11.5344C53.4217 5.48871 48.1047 0.568848 41.5709 0.568848ZM39.7459 3.00563L38.89 5.37905C38.3501 6.87524 36.8437 7.87919 35.1425 7.87919H29.5673C27.8661 7.87919 26.3597 6.87524 25.8198 5.37905L24.9639 3.00563H39.7459V3.00563ZM50.7882 48.0861C50.7882 52.7891 46.6536 56.6148 41.5709 56.6148H23.1363C18.0536 56.6148 13.919 52.7891 13.919 48.0861V11.5344C13.919 7.12379 17.5717 3.52466 22.2172 3.09092L23.318 6.14908C24.216 8.63947 26.7258 10.3135 29.5647 10.3135H35.1399C37.9788 10.3135 40.4885 8.63947 41.3866 6.14908L42.4874 3.09092C47.1329 3.52466 50.7856 7.12135 50.7856 11.5344V48.0861H50.7882Z" fill="#B0AEAE"/>
<path d="M36.3039 49.3045H28.4033C27.6765 49.3045 27.0866 49.8503 27.0866 50.5229C27.0866 51.1954 27.6765 51.7413 28.4033 51.7413H36.3039C37.0307 51.7413 37.6206 51.1954 37.6206 50.5229C37.6206 49.8503 37.0307 49.3045 36.3039 49.3045Z" fill="#B0AEAE"/>
</g>
<defs>
<clipPath id="clip0_1_730">
<rect width="63.2045" height="58.4828" fill="white" transform="translate(0.751373 0.568848)"/>
</clipPath>
</defs>
</svg>
