<svg width="43" height="43" viewBox="0 0 43 43" fill="none" xmlns="http://www.w3.org/2000/svg">
<path d="M34.459 7.5166C33.1508 7.51833 31.8966 8.04537 30.9716 8.98212C30.0466 9.91888 29.5261 11.1889 29.5244 12.5137V18.6865C29.5244 20.0723 28.4048 21.248 27.0364 21.248H13.6011C13.3152 21.248 13.041 21.133 12.8388 20.9283C12.6366 20.7235 12.523 20.4458 12.523 20.1562C12.523 19.8667 12.6366 19.589 12.8388 19.3842C13.041 19.1795 13.3152 19.0645 13.6011 19.0645H23.2629C23.9998 19.0645 24.7064 18.768 25.2275 18.2404C25.7485 17.7128 26.0412 16.9972 26.0412 16.251C26.0412 15.5048 25.7485 14.7892 25.2275 14.2615C24.7064 13.7339 23.9998 13.4375 23.2629 13.4375H6.6347V15.1172H23.2629C23.5598 15.1172 23.8446 15.2366 24.0546 15.4493C24.2646 15.6619 24.3825 15.9503 24.3825 16.251C24.3825 16.5517 24.2646 16.8401 24.0546 17.0527C23.8446 17.2653 23.5598 17.3848 23.2629 17.3848H13.6011C12.8753 17.3848 12.1792 17.6768 11.6659 18.1965C11.1527 18.7163 10.8643 19.4212 10.8643 20.1562C10.8643 20.8913 11.1527 21.5962 11.6659 22.116C12.1792 22.6357 12.8753 22.9277 13.6011 22.9277H27.0364C29.3254 22.9277 31.1831 21.0045 31.1831 18.6865V12.5137C31.1831 11.6338 31.5282 10.7901 32.1426 10.1679C32.7569 9.5458 33.5901 9.19629 34.459 9.19629C35.3278 9.19629 36.161 9.5458 36.7754 10.1679C37.3897 10.7901 37.7348 11.6338 37.7348 12.5137V21.71C37.7348 23.566 36.2503 25.1113 34.4175 25.1113H8.00311C7.0903 25.1113 6.21487 25.4785 5.56942 26.1322C4.92397 26.7858 4.56136 27.6723 4.56136 28.5967C4.56136 29.5211 4.92397 30.4076 5.56942 31.0612C6.21487 31.7148 7.0903 32.082 8.00311 32.082H20.1114C20.5403 32.082 20.9517 32.2546 21.255 32.5617C21.5583 32.8688 21.7286 33.2854 21.7286 33.7197C21.7286 34.1541 21.5583 34.5706 21.255 34.8778C20.9517 35.1849 20.5403 35.3574 20.1114 35.3574H13.3523C12.4505 35.3574 11.5856 35.7202 10.948 36.366C10.3103 37.0117 9.95205 37.8875 9.95205 38.8008C9.95205 39.714 10.3103 40.5898 10.948 41.2356C11.5856 41.8814 12.4505 42.2441 13.3523 42.2441H35.9103V40.5645H13.3523C12.8904 40.5645 12.4474 40.3786 12.1208 40.0479C11.7942 39.7171 11.6107 39.2685 11.6107 38.8008C11.6107 38.333 11.7942 37.8844 12.1208 37.5537C12.4474 37.2229 12.8904 37.0371 13.3523 37.0371H20.1114C20.9802 37.0371 21.8135 36.6876 22.4278 36.0655C23.0422 35.4433 23.3873 34.5996 23.3873 33.7197C23.3873 32.8399 23.0422 31.9961 22.4278 31.374C21.8135 30.7519 20.9802 30.4023 20.1114 30.4023H8.00311C7.5302 30.4023 7.07667 30.2121 6.74228 29.8735C6.40789 29.5348 6.22003 29.0756 6.22003 28.5967C6.22003 28.1178 6.40789 27.6585 6.74228 27.3199C7.07667 26.9813 7.5302 26.791 8.00311 26.791H34.4175C37.1626 26.791 39.3935 24.4898 39.3935 21.71V12.5137C39.3918 11.1889 38.8714 9.91888 37.9463 8.98212C37.0213 8.04537 35.7672 7.51833 34.459 7.5166Z" fill="#1E877E"/>
<path d="M6.60152 0.797856C5.83342 0.796834 5.07332 0.955865 4.3685 1.26506C3.66369 1.57425 3.02923 2.02699 2.5046 2.59512C0.281974 4.93829 0.273681 8.77637 2.5046 11.1447L6.0044 14.8484C6.08122 14.9307 6.17379 14.9962 6.27646 15.0409C6.37913 15.0857 6.48974 15.1088 6.60152 15.1088C6.71331 15.1088 6.82392 15.0857 6.92658 15.0409C7.02925 14.9962 7.12183 14.9307 7.19865 14.8484L10.6984 11.1447C12.9211 8.80157 12.9294 4.96348 10.6984 2.59512C10.1738 2.02699 9.53936 1.57425 8.83454 1.26506C8.12973 0.955865 7.36963 0.796834 6.60152 0.797856ZM9.5042 9.97735L6.60152 13.0428L3.69884 9.97735C2.07334 8.25567 2.07334 5.45899 3.69884 3.74571C4.07049 3.3429 4.51993 3.02175 5.01926 2.80217C5.51859 2.5826 6.05715 2.4693 6.60152 2.4693C7.1459 2.4693 7.68446 2.5826 8.18379 2.80217C8.68312 3.02175 9.13255 3.3429 9.5042 3.74571C11.1214 5.47579 11.1297 8.27247 9.5042 9.97735Z" fill="#1E877E"/>
<path d="M6.60153 3.22498C6.02579 3.22498 5.46298 3.39786 4.98428 3.72178C4.50557 4.04569 4.13246 4.50608 3.91214 5.04473C3.69181 5.58338 3.63417 6.1761 3.74649 6.74792C3.85881 7.31975 4.13605 7.84501 4.54316 8.25727C4.95026 8.66954 5.46895 8.95029 6.03362 9.06404C6.5983 9.17778 7.1836 9.1194 7.71551 8.89629C8.24742 8.67317 8.70205 8.29534 9.02191 7.81057C9.34178 7.32579 9.5125 6.75586 9.5125 6.17283C9.51151 5.39132 9.20451 4.6421 8.65881 4.08949C8.11311 3.53687 7.37326 3.22598 6.60153 3.22498ZM6.60153 7.43259C6.35385 7.43259 6.11173 7.35822 5.90579 7.21887C5.69985 7.07952 5.53934 6.88146 5.44455 6.64973C5.34977 6.41801 5.32497 6.16302 5.37329 5.91702C5.42161 5.67102 5.54088 5.44506 5.71602 5.2677C5.89116 5.09035 6.11429 4.96956 6.35722 4.92063C6.60014 4.8717 6.85193 4.89681 7.08076 4.9928C7.30959 5.08878 7.50517 5.25133 7.64278 5.45987C7.78038 5.66842 7.85383 5.91361 7.85383 6.16443C7.85271 6.50042 7.72042 6.82233 7.4858 7.05991C7.25119 7.29749 6.93331 7.43146 6.60153 7.43259ZM35.8605 27.8156C35.0924 27.8146 34.3323 27.9736 33.6275 28.2828C32.9227 28.592 32.2883 29.0447 31.7636 29.6129C29.541 31.956 29.5327 35.7941 31.7636 38.1625L35.2634 41.8662C35.3402 41.9484 35.4328 42.0139 35.5355 42.0587C35.6382 42.1035 35.7488 42.1265 35.8605 42.1265C35.9723 42.1265 36.0829 42.1035 36.1856 42.0587C36.2883 42.0139 36.3809 41.9484 36.4577 41.8662L39.9575 38.1625C42.1801 35.8193 42.1884 31.9812 39.9575 29.6129C39.4323 29.0454 38.7978 28.5931 38.0931 28.2839C37.3884 27.9748 36.6285 27.8154 35.8605 27.8156ZM38.7632 36.9951L35.8605 40.0605L32.9579 36.9951C31.3324 35.2734 31.3324 32.4767 32.9579 30.7635C33.3295 30.3606 33.779 30.0395 34.2783 29.8199C34.7776 29.6003 35.3162 29.487 35.8605 29.487C36.4049 29.487 36.9435 29.6003 37.4428 29.8199C37.9421 30.0395 38.3916 30.3606 38.7632 30.7635C40.3804 32.4935 40.3804 35.2902 38.7632 36.9951Z" fill="#1E877E"/>
<path d="M35.8605 30.2344C35.2848 30.2344 34.722 30.4073 34.2433 30.7312C33.7646 31.0551 33.3915 31.5155 33.1712 32.0541C32.9508 32.5928 32.8932 33.1855 33.0055 33.7573C33.1178 34.3292 33.3951 34.8544 33.8022 35.2667C34.2093 35.6789 34.728 35.9597 35.2926 36.0734C35.8573 36.1872 36.4426 36.1288 36.9745 35.9057C37.5064 35.6826 37.9611 35.3047 38.2809 34.82C38.6008 34.3352 38.7715 33.7653 38.7715 33.1822C38.7705 32.4007 38.4635 31.6515 37.9178 31.0989C37.3721 30.5463 36.6323 30.2354 35.8605 30.2344ZM35.8605 34.4504C35.6129 34.4504 35.3707 34.376 35.1648 34.2367C34.9589 34.0973 34.7984 33.8993 34.7036 33.6675C34.6088 33.4358 34.584 33.1808 34.6323 32.9348C34.6806 32.6888 34.7999 32.4629 34.975 32.2855C35.1502 32.1081 35.3733 31.9874 35.6162 31.9384C35.8592 31.8895 36.111 31.9146 36.3398 32.0106C36.5686 32.1066 36.7642 32.2691 36.9018 32.4777C37.0394 32.6862 37.1128 32.9314 37.1128 33.1822C37.1117 33.5182 36.9794 33.8401 36.7448 34.0777C36.5102 34.3153 36.1923 34.4493 35.8605 34.4504Z" fill="#1E877E"/>
</svg>
