<svg width="43" height="43" viewBox="0 0 43 43" fill="none" xmlns="http://www.w3.org/2000/svg">
<path d="M3.66448 34.5376L6.57313 34.0646C7.05975 34.7372 7.6307 35.3429 8.27161 35.8663L7.66865 38.7903L11.2567 40.3942L12.9807 37.9776C13.796 38.1014 14.6235 38.1202 15.4435 38.0335L17.0655 40.5275L20.7215 39.0913L20.2544 36.1501C20.9257 35.6599 21.5297 35.0815 22.0506 34.4301L24.921 35.0407L26.5091 31.39L24.1227 29.67C24.263 28.8377 24.2901 27.9899 24.2034 27.1502L26.6619 25.5205L25.2479 21.8139L22.3435 22.2869C21.8556 21.6128 21.2849 21.0045 20.6451 20.4766L21.231 17.5569L17.626 15.953L15.902 18.3696C15.0867 18.2452 14.259 18.2279 13.4392 18.318L11.8214 15.8197L8.16121 17.2602L8.62829 20.21C7.96064 20.7016 7.35962 21.2799 6.84064 21.93L3.96171 21.3151L2.37788 24.94L4.76425 26.66C4.63436 27.4892 4.61437 28.3323 4.7048 29.1669L2.24625 30.8267L3.66448 34.5376ZM8.98073 25.7355C9.45768 24.6406 10.2446 23.7136 11.2418 23.0716C12.2391 22.4296 13.402 22.1015 14.5834 22.1289C15.7648 22.1562 16.9116 22.5377 17.8789 23.2251C18.8462 23.9126 19.5904 24.8751 20.0175 25.9909C20.4446 27.1067 20.5353 28.3257 20.2782 29.4937C20.0211 30.6617 19.4277 31.7263 18.5731 32.5528C17.7185 33.3792 16.6411 33.9305 15.4771 34.1369C14.3131 34.3432 13.1148 34.1954 12.0338 33.712C10.5846 33.064 9.44883 31.8597 8.8763 30.3639C8.30378 28.8681 8.34134 27.2033 8.98073 25.7355Z" fill="#656060"/>
<path fill-rule="evenodd" clip-rule="evenodd" d="M25.2055 15.2822L23.9316 17.028L25.8169 19.178L27.681 18.1159C28.1841 18.453 28.7278 18.7233 29.2988 18.92L29.6173 21.07L32.4623 21.242L33.0312 19.1608C33.6203 19.0402 34.1913 18.8421 34.7297 18.5717L36.4282 19.8617L38.5513 17.9482L37.4983 16.0691C37.8332 15.5622 38.0976 15.0109 38.2838 14.4308L40.4069 14.1126L40.581 11.2359L38.5216 10.6554C38.4037 10.0586 38.2081 9.48017 37.9399 8.93543L39.2137 7.19392L37.3284 5.04393L35.4643 6.10603C34.9633 5.77407 34.4225 5.50819 33.855 5.31483L33.5365 3.16483L30.6916 2.98853L30.1481 5.06113C29.559 5.1818 28.988 5.37984 28.4496 5.65023L26.7511 4.36023L24.628 6.26943L25.6344 8.17003C25.3014 8.67724 25.0359 9.22662 24.8446 9.80402L22.7215 10.1222L22.5474 13.0032L24.628 13.5751C24.7457 14.1674 24.9398 14.7413 25.2055 15.2822ZM30.993 7.77287C30.1435 7.88909 29.347 8.25774 28.7044 8.83223V8.81933C28.2753 9.20132 27.9251 9.6654 27.6738 10.1849C27.4225 10.7044 27.275 11.2691 27.2399 11.8465C27.2048 12.4239 27.2827 13.0027 27.4691 13.5495C27.6556 14.0963 27.947 14.6004 28.3265 15.0328C28.8945 15.683 29.6401 16.148 30.4691 16.3691C31.2981 16.5903 32.1731 16.5576 32.9838 16.2751C33.7944 15.9927 34.5041 15.4733 35.0233 14.7825C35.5424 14.0917 35.8477 13.2606 35.9005 12.3941C35.9533 11.5277 35.7513 10.6648 35.32 9.91459C34.8886 9.16438 34.2474 8.56051 33.4772 8.1793C32.707 7.79809 31.8425 7.65666 30.993 7.77287Z" fill="#1E877E"/>
</svg>
