<svg width="64" height="63" viewBox="0 0 64 63" xmlns="http://www.w3.org/2000/svg">
<path d="M18.893 39.3363L19.982 38.2526C20.1343 38.0849 20.3594 37.7378 19.9998 37.3579L19.8904 37.2491C19.4103 36.7689 18.908 37.3252 18.908 37.3252L15.7029 40.5163C15.1274 41.0899 15.5058 41.4302 15.5058 41.4302L15.6455 41.5709C15.6455 41.5709 16.102 42.1204 16.6371 41.5872L17.6899 40.5373L21.8715 44.7388C22.0609 44.9065 22.4345 45.1397 22.7965 44.7773L23.1205 44.4563C23.2761 44.2529 23.4164 43.8769 22.9175 43.3775L18.893 39.3363Z" fill="#B0AEAE"/>
<path d="M22.2663 35.4722C21.538 34.7405 21.0068 35.2341 21.0068 35.2341L20.8202 35.4182C20.3228 35.9157 20.9301 36.5442 20.9301 36.5442L25.3499 40.9808C25.4801 41.1042 26.0122 41.5747 26.422 41.1679L26.6823 40.9056C26.8423 40.7225 27.0853 40.3109 26.6042 39.8279L22.2663 35.4722Z" fill="#B0AEAE"/>
<path d="M31.6057 34.2575C31.2799 33.9307 30.9338 34.5294 30.9338 34.5294C30.9338 34.5294 30.9164 34.5236 30.9136 34.5236C30.6504 34.9767 30.3843 35.3778 30.1076 35.6516C29.1541 36.6011 28.0473 36.4392 26.7854 35.1715C26.179 34.5622 25.8291 33.9645 25.7375 33.3764C25.6469 32.7864 25.83 32.2658 26.284 31.8151C26.4895 31.6068 26.7391 31.4352 27.0292 31.2969C27.0639 31.2795 27.1016 31.268 27.1372 31.2516L27.1344 31.2477C27.1344 31.2477 27.973 31.0144 27.6723 30.3155L27.6039 30.155C27.4274 29.7472 27.0601 29.7481 26.8606 29.7814C26.261 30.0503 25.7172 30.3801 25.2834 30.8101C24.7416 31.3499 24.3868 31.9394 24.2201 32.5782C24.0542 33.2173 24.0842 33.8662 24.3116 34.5237C24.5382 35.185 24.948 35.8087 25.536 36.4007C26.4702 37.3397 27.4082 37.842 28.3453 37.9037C29.2843 37.9711 30.1654 37.5922 30.9926 36.769C31.4621 36.2994 31.8053 35.7982 32.0714 35.2699C32.1283 35.0809 32.1486 34.7763 31.8083 34.4611L31.6057 34.2575Z" fill="#B0AEAE"/>
<path d="M37.566 29.216L33.103 28.1947L32.672 24.4926C32.672 24.4902 32.672 24.4921 32.672 24.4902C32.5813 23.6977 32.0347 24.2482 32.0347 24.2482L31.5825 24.6984C31.2422 25.0392 31.2942 25.4884 31.2942 25.4884L31.6297 28.5022L31.8216 29.6436L29.8838 27.6971C29.3392 27.152 28.9256 27.3737 28.751 27.5188L28.4744 27.7973C28.0222 28.2465 28.6469 28.8694 28.6469 28.8694L33.0951 33.334C33.2735 33.5038 33.7464 33.872 34.1648 33.4516L34.4656 33.1585C34.6179 32.9406 34.7297 32.5627 34.238 32.0701L32.8704 30.6977L33.016 29.8252L36.326 30.6046C36.326 30.6046 36.8871 30.7391 37.2478 30.3838L37.8244 29.8102C38.1831 29.4507 37.8052 29.2811 37.566 29.216Z" fill="#B0AEAE"/>
<path d="M41.5457 24.6926C41.2373 24.3865 40.7667 24.8951 40.7667 24.8951L39.6214 26.0351C39.2995 26.3571 38.9966 26.2308 38.8135 26.0866L38.1985 25.4696C38.0962 25.365 37.7801 24.9514 38.343 24.3894L39.2415 23.4962C39.3727 23.3375 39.5482 23.0093 39.1586 22.5837L39.018 22.4439C38.6612 22.0872 38.1966 22.5664 38.1966 22.5664L37.2653 23.4952C36.7389 24.022 36.2743 23.5375 36.2743 23.5375L35.9311 23.1958C35.9311 23.1958 35.4876 22.7793 35.933 22.3339L37.0937 21.1789C37.6239 20.6521 37.1034 20.2322 37.1034 20.2322L36.9318 20.0626C36.5597 19.6895 36.1123 20.1918 36.1123 20.1918L33.9797 22.3132C33.4066 22.8868 33.9528 23.6196 33.9528 23.6196L38.3509 28.0355C38.4992 28.1805 39.0295 28.612 39.5984 28.0461L41.7771 25.8751C41.9333 25.6967 42.1551 25.3187 41.7404 24.8903L41.5457 24.6926Z" fill="#B0AEAE"/>
<path d="M41.5515 17.9393C41.0136 17.3999 41.3065 17.0172 41.3973 16.9242L42.0644 16.2599C42.2013 16.1038 42.423 15.7476 42.0393 15.3436L41.9333 15.2337C41.5882 14.8876 41.1834 15.1571 40.9827 15.3368L37.6683 18.6402C37.2152 19.0895 37.5932 19.4635 37.5932 19.4635L37.7647 19.6346C37.7647 19.6346 38.185 20.1239 38.6363 19.6737L39.2822 19.0292C39.423 18.8995 39.8201 18.6123 40.2847 19.0764L43.8518 22.6589C44.0022 22.8049 44.4649 23.194 44.8409 22.8228L45.028 22.6352C45.5273 22.1435 45.2516 21.6817 45.0608 21.4634L41.5515 17.9393Z" fill="#B0AEAE"/>
<path d="M57.8057 23.407L55.0716 26.1281L54.5529 26.6454L27.3435 53.7486L26.0151 55.0713L23.013 58.0619C21.5832 59.4848 20.5499 58.3761 20.5499 58.3761L19.4281 57.2521C19.4281 57.2521 18.5802 56.2937 18.9673 54.9537C18.9673 54.9517 18.9673 54.9479 18.9702 54.9461C19.6484 53.0314 20.3888 49.3621 17.5245 46.5451L16.8438 45.8625C13.3586 42.3605 9.33614 43.3217 7.57383 43.9994C7.57096 43.9994 7.57287 43.9994 7.57287 43.9994C6.60253 44.3166 5.91942 43.6668 5.91942 43.6668L4.37016 42.1107C4.37016 42.1107 3.59548 41.2084 4.63766 40.1711L7.92037 36.9011L8.63712 36.1876L35.0092 9.92107L36.9778 7.95917L39.6444 5.3027C39.9684 4.99086 41.2025 3.94529 42.2821 5.03044L42.8047 5.55587C43.0726 5.86146 43.5759 6.64569 43.3869 8.02581C42.9203 9.99397 42.6947 13.6979 46.0882 17.1049L46.2926 17.313C49.0286 20.2472 52.3606 20.1416 54.3214 19.7271L54.3233 19.7309C54.3233 19.7309 56.0221 19.2354 57.2117 20.4328L57.4758 20.6959C58.6849 21.9571 58.2068 22.9274 57.8057 23.407ZM62.0399 20.1823L58.5384 16.6668C57.127 15.251 54.9578 16.4059 54.9578 16.4059L54.9521 16.4021C52.6905 17.3459 49.9852 16.8986 48.1476 15.0553C46.3082 13.2087 45.8744 10.4987 46.8308 8.23887C46.8385 8.21712 46.8385 8.20322 46.8501 8.18051C47.6676 6.01956 46.503 4.59996 46.1618 4.24175L42.6429 0.707574C41.1061 -0.835418 39.4382 0.568257 39.0295 0.959151L1.0448 38.7945C-1.06608 40.8942 0.674593 42.5698 0.674593 42.5698L4.7497 46.6627C4.7497 46.6627 5.7557 47.7502 7.70508 46.9615C7.76821 46.9364 7.815 46.9268 7.86997 46.9095C10.189 45.7911 13.0494 46.1768 14.9694 48.103C16.7973 49.9386 17.2388 52.6245 16.3061 54.8784H16.3081C16.3081 54.8784 15.1241 57.0784 16.55 58.5091L20.1176 62.0935C20.3731 62.3441 22.2467 64.0293 24.5894 61.6981L62.3292 24.1101C62.9018 23.4475 63.7887 21.9383 62.0399 20.1823Z" fill="#B0AEAE"/>
</svg>
