<svg width="29" height="29" viewBox="0 0 29 29" fill="none" xmlns="http://www.w3.org/2000/svg">
<path d="M18.9829 15.3578C20.1676 14.4258 21.0322 13.1477 21.4567 11.7013C21.8811 10.255 21.8442 8.71229 21.351 7.28791C20.8578 5.86353 19.933 4.62828 18.7051 3.754C17.4772 2.87973 16.0073 2.40991 14.5 2.40991C12.9927 2.40991 11.5228 2.87973 10.2949 3.754C9.06703 4.62828 8.14217 5.86353 7.64901 7.28791C7.15585 8.71229 7.11891 10.255 7.54334 11.7013C7.96776 13.1477 8.83245 14.4258 10.0171 15.3578C7.98718 16.1711 6.21602 17.5199 4.89242 19.2606C3.56881 21.0013 2.74239 23.0685 2.50125 25.242C2.4838 25.4007 2.49777 25.5612 2.54237 25.7145C2.58697 25.8678 2.66132 26.0108 2.76118 26.1353C2.96286 26.3869 3.2562 26.548 3.57667 26.5832C3.89714 26.6185 4.21849 26.525 4.47002 26.3233C4.72155 26.1216 4.88267 25.8283 4.91792 25.5078C5.18325 23.1457 6.30954 20.9642 8.0816 19.3801C9.85366 17.7959 12.1473 16.9202 14.5242 16.9202C16.9011 16.9202 19.1947 17.7959 20.9667 19.3801C22.7388 20.9642 23.8651 23.1457 24.1304 25.5078C24.1633 25.8047 24.3049 26.0789 24.5281 26.2775C24.7512 26.4761 25.04 26.585 25.3388 26.5832H25.4717C25.7884 26.5468 26.0779 26.3866 26.2771 26.1376C26.4763 25.8887 26.569 25.5711 26.535 25.2541C26.2927 23.0745 25.4618 21.0019 24.1314 19.2586C22.801 17.5152 21.0213 16.1668 18.9829 15.3578ZM14.5 14.4999C13.5441 14.4999 12.6096 14.2164 11.8147 13.6853C11.0199 13.1542 10.4004 12.3994 10.0346 11.5162C9.66876 10.633 9.57305 9.66119 9.75954 8.72362C9.94604 7.78604 10.4064 6.92482 11.0823 6.24887C11.7583 5.57292 12.6195 5.11259 13.5571 4.92609C14.4946 4.7396 15.4665 4.83531 16.3496 5.20114C17.2328 5.56696 17.9877 6.18646 18.5188 6.9813C19.0499 7.77613 19.3333 8.71061 19.3333 9.66655C19.3333 10.9484 18.8241 12.1778 17.9177 13.0842C17.0113 13.9907 15.7819 14.4999 14.5 14.4999Z" fill="#5CD1B5"/>
</svg>
