<svg width="130" height="81" viewBox="0 0 130 81" fill="none" xmlns="http://www.w3.org/2000/svg">
<path fill-rule="evenodd" clip-rule="evenodd" d="M92.922 0L91.7129 0.291436L87.1044 1.31138C86.4917 1.46182 86.0401 2.17713 86.1987 2.76804C86.3547 3.35924 87.0966 3.72188 87.7086 3.56966L91.1842 2.76804L95.263 18.0649L92.2415 19.012C91.3306 19.1443 90.9362 20.4754 91.6366 21.0518L92.3169 23.3827L48.6557 38.6796L47.2204 34.3087L48.2787 33.5806C48.3567 33.529 48.3923 33.4426 48.4295 33.3624L49.9403 30.0118C49.9749 29.931 50.0183 29.7786 49.9403 29.7204C49.8709 29.6633 49.7167 29.68 49.6369 29.7204L48.7312 30.2301C48.6878 30.2552 48.6792 30.2607 48.6532 30.3039L47.5195 32.7806L43.3653 35.913L43.0628 35.8391C43.0021 35.814 42.886 35.7834 42.8374 35.8391C42.6727 35.9946 42.5332 36.1675 42.3833 36.2763C42.3399 36.3139 42.2749 36.3208 42.2333 36.3501C42.1553 36.3988 42.1466 36.488 42.1553 36.5682C42.1726 36.6504 42.2246 36.7715 42.307 36.7864L43.3644 36.9317C43.5204 36.9624 43.6903 36.9582 43.8177 36.8593L45.1013 35.9126L46.4613 39.8458L42.0046 43.1237L41.8529 42.6868L41.098 42.3956L40.7963 41.5941L40.0405 41.376L39.7389 40.5748L38.9077 40.3564L38.6052 39.6279L37.774 39.5541L37.3216 38.826L36.4904 38.6781L36.0379 38.0227H35.2067L34.7526 37.2942L33.9222 37.368L33.3173 36.7124L32.5623 36.8579L32.0336 36.2025L31.127 36.2749L30.5238 35.6923L29.768 35.9104L29.1639 35.3275L28.2573 35.619L27.5769 35.036L26.8974 35.3275L26.1407 34.8901L25.3112 35.2545L24.6308 34.8174L23.9505 35.1815L23.1955 34.8174H23.1175L22.5134 35.2545L21.6822 34.8901L21.0018 35.3275L20.2469 35.036L19.5674 35.619L18.6608 35.3275L18.0567 35.9104L17.3009 35.6923L16.6968 36.2749L15.7902 36.2025L15.2614 36.7851L14.4302 36.7113L13.9015 37.2941H13.0703L12.6179 38.0224H11.7867L11.3325 38.6777L10.4268 38.8256L10.0489 39.5539L9.21856 39.6263L8.91606 40.3547L8.16114 40.5728L7.85864 41.301L6.95204 41.5922L6.65041 42.3209L5.89462 42.6853L5.81662 43.4135L4.98714 43.7051L4.90914 44.5061L4.07881 44.9432L4.00081 45.7447L3.32128 46.1089L3.24328 46.983L2.64004 47.4198V48.2211L1.95965 48.7313L2.03765 49.5324L1.43354 50.0422L1.51155 50.9162L0.907443 51.4992L1.13366 52.228L0.528681 52.8106L0.831176 53.6846L0.227066 54.3402L0.528696 54.9957L0.0762669 55.7242L0.377029 56.5254L0 57.1811L0.377029 57.8367L0 58.6381L0.377029 59.2936L0.0762669 60.0948L0.528696 60.7506L0.227066 61.4788L0.755776 62.1346L0.528696 63.0085L1.13367 63.5185L0.908324 64.3196L1.51157 64.9024L1.43355 65.7765L2.0368 66.214L1.95878 67.088L2.63831 67.5979V68.3987L3.24328 68.8361L3.32128 69.6375L4.00081 70.0746L4.07881 70.9485L4.91001 71.3127L4.98801 72.0415L5.81835 72.4055L5.89636 73.134L6.65129 73.4252L6.95378 74.2994L7.86039 74.5175L8.16115 75.2461L8.91781 75.3915L9.2203 76.1928L10.0506 76.2653L10.4277 77.0666L11.3343 77.1391L11.7876 77.7949H12.5434L13.0721 78.4504H13.9033L14.432 79.106L15.1869 79.0336L15.7919 79.6163L16.6222 79.5425L17.3018 80.1252L18.0584 79.907L18.6625 80.417L19.4929 80.199L20.2486 80.7087L21.0036 80.4173L21.684 80.8543L22.4389 80.5629L23.1947 81L23.9496 80.5629L24.7054 81L25.3849 80.5629L26.2161 80.8543L26.8965 80.4173L27.6514 80.7087L28.331 80.2716L29.2376 80.417L29.8417 79.9072L30.5975 80.1254L31.2016 79.5427L32.1073 79.6151L32.6369 79.0326L33.3918 79.105L33.9968 78.4493H34.828L35.2804 77.7937H36.1116L36.5649 77.1379L37.3961 77.0655L37.8494 76.2641L38.6798 76.1917L38.9823 75.3899L39.8135 75.2446L40.116 74.516L40.8709 74.298L41.0971 73.4966L41.9283 73.1323L42.0063 72.4038L42.8375 72.0396L42.9155 71.3112L43.6713 70.947L43.8213 70.0728L44.5016 69.6358V68.8346L45.1812 68.3974L45.1032 67.5963L45.8581 67.0863L45.7801 66.2849L46.3851 65.7749L46.3071 64.9738L46.9103 64.3182L46.7604 63.5899L47.2891 63.0071L47.062 62.2057L47.5907 61.4774L47.2891 60.7486L47.7424 60.0934L47.3645 59.3646L47.8178 58.6366L47.4407 57.9076L47.5907 57.5436L48.7244 57.4697L48.5736 57.7611L48.9506 58.1253L48.7998 58.5623L49.2531 58.7805L49.1023 59.2904L49.631 59.5085L49.553 60.0185L50.0054 60.1639V60.674L50.5341 60.7478L50.6121 61.1848H51.1408L51.2942 61.6947L51.8229 61.6222L52.0491 62.1326L52.5024 61.9846L52.8041 62.4219L53.2574 62.274L53.5599 62.6383L54.0886 62.4201L54.3902 62.7843L54.8444 62.4928L55.2977 62.7843L55.6756 62.4928L56.128 62.711L56.4305 62.3467L56.8838 62.5648L57.1854 62.128L57.7141 62.2735L57.9403 61.8367L58.4691 61.9106L58.6199 61.4735L57.8649 60.7451C57.0502 61.2306 56.0977 61.5465 55.0697 61.5465C52.121 61.5465 49.7072 59.2181 49.7072 56.3744C49.7072 53.531 52.121 51.2025 55.0697 51.2025C58.0183 51.2025 60.3576 53.531 60.3576 56.3744C60.3576 57.364 60.1028 58.285 59.6018 59.0695L60.3576 59.7984L60.8109 59.6505L60.7329 59.1406L61.1862 58.9226L61.0354 58.4853L61.4878 58.1939L61.2616 57.684L61.6395 57.3926L61.3379 56.9556L61.7158 56.5915L61.4133 56.1543L61.7158 55.7901L61.3379 55.4262L61.5641 54.9889L61.1108 54.6972L61.3361 54.1875L60.8837 53.9693L61.0345 53.4592L60.5058 53.2413V53.1688L94.0444 29.7137L96.1609 37.1439L96.0101 37.2892H95.178L94.7247 38.0176H93.8944L93.4411 38.6732L92.5345 38.8213L92.1566 39.5496L91.3254 39.6221L91.0229 40.3504L90.268 40.5686L89.9672 41.2968L89.0597 41.588L88.8335 42.3169L88.0786 42.681L87.9269 43.4093L87.0957 43.7006L87.0177 44.5018L86.1865 44.9389L86.1085 45.7404L85.429 46.1047L85.351 46.9787L84.7468 47.4155V48.2171L84.0673 48.7271L84.1453 49.5283L83.5412 50.0379L83.6192 50.9123L83.016 51.4949L83.2413 52.2235L82.6381 52.8062L82.9388 53.6805L82.3356 54.336L82.6381 54.9914L82.1839 55.7202L82.4864 56.5213L82.1094 57.1772L82.4864 57.8326L82.1094 58.6338L82.4864 59.2894L82.1839 60.0908L82.6381 60.7463L82.3356 61.4746L82.8643 62.1303L82.6381 63.0047L83.2422 63.5144L83.016 64.3154L83.6201 64.8982L83.5421 65.7724L84.1462 66.2097L84.0682 67.0838L84.7486 67.5936V68.3946L85.3527 68.8321L85.4307 69.6332L86.1111 70.0703L86.1891 70.9443L87.0212 71.3083L87.0992 72.0372L87.9295 72.4013L88.0803 73.1297L88.8361 73.421L89.0632 74.2951L89.9689 74.5133L90.2706 75.2419L91.0264 75.3874L91.328 76.1886L92.1592 76.2626L92.5371 77.0641L93.4428 77.1365L93.897 77.7922H94.6519L95.1806 78.4478H96.0118L96.5405 79.1033L97.2955 79.0309L97.9004 79.6136L98.7308 79.5411L99.4112 80.1238L100.166 79.9057L100.771 80.4158L101.602 80.1976L102.357 80.7072L103.112 80.4159L103.793 80.8529L104.547 80.5617L105.302 80.9986L106.059 80.5617L106.814 80.9986L107.494 80.5617L108.326 80.8529L109.005 80.4159L109.76 80.7072L110.44 80.2702L111.347 80.4158L111.95 79.9058L112.707 80.124L113.311 79.5415L114.217 79.6139L114.745 79.031L115.5 79.1048L116.105 78.4495H116.936L117.39 77.7937H118.22L118.673 77.1377L119.505 77.0653L119.957 76.2641L120.788 76.1917L121.091 75.3899L121.922 75.2446L122.224 74.516L122.979 74.2978L123.206 73.4968L124.037 73.1324L124.187 72.4037L125.018 72.0396L125.096 71.311L125.852 70.9468L126.002 70.0729L126.682 69.6356V68.8345L127.363 68.3973L127.285 67.5963L128.04 67.0862L127.962 66.2848L128.566 65.7749L128.488 64.9738L129.093 64.318L128.943 63.5897L129.471 63.007L129.244 62.2057L129.773 61.4772L129.471 60.7487L129.924 60.0932L129.547 59.3647L130 58.6365L129.621 57.9076L130 57.1796L129.547 56.5239L129.924 55.7228L129.471 55.0668L129.773 54.3384L129.244 53.6831L129.471 52.8089L128.943 52.2259L129.093 51.4975L128.488 50.9146L128.566 50.0406L127.962 49.531L128.04 48.7294L127.36 48.2195V47.4182L126.68 46.9813V46.1072L126.001 45.7428L125.85 44.9416L125.093 44.5045L125.015 43.7033L124.26 43.4118L124.034 42.6834L123.278 42.392L122.977 41.5907L122.221 41.3726L121.919 40.5714L121.088 40.3532L120.786 39.6249L119.955 39.5525L119.502 38.8244L118.671 38.6764L118.218 38.0211H117.386L116.933 37.2925L116.103 37.3664L115.498 36.7109L114.743 36.8562L114.214 36.2009L113.308 36.2747L112.704 35.692L111.948 35.9102L111.344 35.3274L110.438 35.6188L109.757 35.0361L109.077 35.3274L108.322 34.8902L107.491 35.2545L106.811 34.8175L106.131 35.1816L105.3 34.8175L104.621 35.2545L103.79 34.8902L103.109 35.3274L102.355 35.0361L101.674 35.6188L100.768 35.3274L100.163 35.9102L99.4086 35.692L98.8044 36.2747H98.3511L94.0453 20.904L97.1421 19.8845L98.1996 19.5202L97.8979 18.5001L93.1386 1.09016L92.922 0ZM92.922 25.6406L93.3745 27.389L58.9288 51.4278L58.8508 51.0638L58.3221 51.1363L58.095 50.6263L57.5663 50.7743L57.341 50.3368L56.8114 50.4848L56.5106 50.1206L56.0565 50.3387L55.6786 49.9746L55.2253 50.2659L54.8474 49.9746L54.4703 50.3387L54.0179 50.0473L53.7154 50.4117L53.4892 50.3392L49.4849 40.8694L92.922 25.6406ZM52.1309 26.1503C51.7643 26.1252 51.3266 26.2631 50.9973 26.4417C44.7066 28.4296 41.8151 32.2752 35.4363 34.1635C34.9674 34.4165 34.7333 35.0119 34.9838 35.4744L35.2855 36.0574C35.3201 36.1145 35.3721 36.1172 35.4363 36.1311C37.5823 36.5147 39.5064 36.573 41.6308 36.4226C42.9031 36.103 43.9363 34.0327 44.5006 33.2175C46.8243 30.7664 50.7965 28.9256 53.5658 27.8269C53.6525 27.7949 53.7192 27.6919 53.7157 27.6089C53.7157 27.162 53.4462 26.7687 53.1125 26.5164C52.8005 26.2981 52.4962 26.1701 52.1296 26.152L52.1309 26.1503ZM23.9542 41.1561C29.152 41.1561 33.7656 43.3589 36.9474 46.8376L26.5231 54.5594C25.7916 54.0336 24.9361 53.6854 23.9542 53.6854C21.5352 53.6854 19.5729 55.578 19.5729 57.91C19.5729 60.2427 21.5352 62.1351 23.9542 62.1351C26.0707 62.1351 27.7765 60.7094 28.1838 58.784L41.3287 57.983C41.2853 67.2149 33.5376 74.6644 23.9535 74.6644C14.3449 74.6644 6.57969 67.175 6.57969 57.9105C6.57969 48.6448 14.3472 41.1561 23.9542 41.1561ZM106.065 41.1561C115.674 41.1561 123.44 48.6445 123.44 57.91C123.44 67.1752 115.674 74.6639 106.065 74.6639C96.4565 74.6639 88.6913 67.1745 88.6913 57.91C88.6913 51.5053 92.3662 45.9428 97.8319 43.1229L101.76 57.036C101.708 57.3113 101.682 57.6187 101.682 57.9101C101.682 60.2428 103.644 62.1352 106.063 62.1352C108.482 62.1352 110.444 60.2428 110.444 57.9101C110.444 55.5778 108.482 53.6856 106.063 53.6856C105.117 53.6856 104.212 53.9937 103.496 54.4867L100.02 42.176C101.893 41.5117 103.948 41.1562 106.063 41.1562L106.065 41.1561ZM47.4466 42.1031L51.3746 51.3542L50.9976 51.2818L50.8442 51.7917L50.3155 51.8642V52.3738L49.7868 52.4463V52.9562L49.3335 53.1041L49.4115 53.6141L48.9582 53.8322L49.109 54.3426L48.6566 54.5607L48.8819 55.0706L48.7285 55.1431L47.3694 55.2155L47.2914 55.0701L47.5939 54.3415L47.0652 53.6861L47.2914 52.8121L46.7627 52.2293L46.9135 51.5004L46.3103 50.9177L46.3883 50.0435L45.7842 49.5339L45.8622 48.7327L45.1818 48.2226V47.4212L44.5031 46.9844V46.1104L43.8227 45.7459L43.6719 44.9447L47.4466 42.1031ZM38.4577 48.732C39.828 50.7553 40.7458 53.1458 41.102 55.6519L28.0334 56.4533V56.3795L38.4577 48.732ZM52.2813 52.3738C51.7422 52.7236 51.2854 53.1646 50.9223 53.6854C52.0716 54.7337 52.7346 55.7267 52.7346 56.3806C52.7346 57.0343 52.0716 58.0268 50.9223 59.0754C51.2854 59.5959 51.7422 60.0369 52.2813 60.387C53.3691 59.2792 54.3987 58.6386 55.0766 58.6386C55.666 58.6386 56.4911 59.1633 57.4176 60.0228L60.9695 63.4462H63.7631L58.6268 58.5657C57.8224 57.7269 57.4177 56.9185 57.4177 56.3806C57.4177 55.7267 58.0824 54.734 59.2317 53.6854C58.8686 53.1646 58.4118 52.7237 57.8718 52.3738C56.7841 53.4823 55.7553 54.1223 55.0765 54.1223C54.3987 54.1223 53.3691 53.4823 52.2813 52.3738ZM55.0766 55.0693C55.8125 55.0693 56.3611 55.671 56.3611 56.3806C56.3611 57.0898 55.8125 57.6916 55.0766 57.6916C54.3416 57.6916 53.7175 57.0898 53.7175 56.3806C53.7175 55.671 54.3416 55.0693 55.0766 55.0693ZM55.0766 55.3605C54.4725 55.3605 53.9438 55.7976 53.9438 56.3806C53.9438 56.9635 54.4725 57.4731 55.0766 57.4731C55.6816 57.4731 56.134 56.9632 56.134 56.3806C56.134 55.7974 55.6816 55.3605 55.0766 55.3605ZM60.063 63.6649C59.6183 63.6649 59.2318 64.0379 59.2318 64.4662V65.2674C59.2318 65.6949 59.6183 66.0687 60.063 66.0687H66.9371C67.38 66.0687 67.692 65.6953 67.692 65.2674V64.4662C67.692 64.0382 67.38 63.6649 66.9371 63.6649H60.063ZM63.4623 63.883C64.0274 63.883 64.5197 64.3573 64.5197 64.9025C64.5197 65.4485 64.0274 65.8497 63.4623 65.8497C62.8955 65.8497 62.4794 65.4485 62.4794 64.9025C62.4794 64.357 62.8955 63.883 63.4623 63.883ZM63.4623 64.3927C63.1754 64.3927 62.9327 64.6259 62.9327 64.9025C62.9327 65.1801 63.1754 65.3398 63.4623 65.3398C63.7492 65.3398 63.991 65.1818 63.991 64.9025C63.991 64.6256 63.7492 64.3927 63.4623 64.3927ZM61.4983 64.4651C61.7193 64.4651 61.8753 64.6156 61.8753 64.8292C61.8753 65.0423 61.7193 65.2665 61.4983 65.2665C61.2773 65.2665 61.0442 65.0433 61.0442 64.8292C61.0442 64.6161 61.2764 64.4651 61.4983 64.4651ZM65.5009 64.4651C65.7219 64.4651 65.8796 64.6156 65.8796 64.8292C65.8796 65.0423 65.7236 65.2665 65.5009 65.2665C65.2798 65.2665 65.123 65.0433 65.123 64.8292C65.123 64.6161 65.2824 64.4651 65.5009 64.4651ZM60.3646 64.6106C60.5136 64.6106 60.5916 64.6857 60.5916 64.8286C60.5916 64.9715 60.5136 65.1201 60.3646 65.1201C60.2146 65.1201 60.0629 64.9721 60.0629 64.8286C60.0629 64.6857 60.2164 64.6106 60.3646 64.6106ZM66.6345 64.6106C66.7827 64.6106 66.8607 64.6857 66.8607 64.8286C66.8607 64.9715 66.7827 65.1201 66.6345 65.1201C66.4862 65.1201 66.332 64.9721 66.332 64.8286C66.332 64.6857 66.4862 64.6106 66.6345 64.6106Z" fill="#1E877E"/>
</svg>
