<svg width="44" height="45" viewBox="0 0 44 45" fill="none" xmlns="http://www.w3.org/2000/svg">
<path fill-rule="evenodd" clip-rule="evenodd" d="M35.353 26.8523C34.4265 21.7803 30.1104 17.9579 25.0724 17.9579C21.4377 17.9579 18.076 19.9502 16.1823 23.1303C15.2361 22.6885 14.2111 22.4609 13.1747 22.4624C9.09835 22.4624 5.78218 25.9263 5.78218 30.1843C5.78218 30.4057 5.79203 30.6283 5.81051 30.8497C2.61139 31.4739 0.237762 34.4262 0.237762 37.8567C0.237762 41.7865 3.29889 44.9846 7.0617 44.9846H34.6636C39.4596 44.9846 43.361 40.9094 43.361 35.9004C43.361 33.3844 42.3999 31.0472 40.6528 29.3182C39.2065 27.89 37.3368 27.0201 35.353 26.8523ZM7.06232 42.4107H34.663C38.0993 42.4107 40.8968 39.4905 40.8968 35.9004C40.9006 35.0179 40.7304 34.144 40.397 33.3331C40.0636 32.5222 39.574 31.7917 38.9587 31.1869C38.3469 30.5756 37.6213 30.1022 36.8271 29.796C36.0328 29.4898 35.1867 29.3574 34.3414 29.407L33.1426 29.4739L33.0471 28.2242C32.7175 23.9109 29.2147 20.5319 25.0724 20.5319C21.9521 20.5319 19.0949 22.4527 17.7932 25.4263L17.1821 26.8227L15.9722 25.9495C15.1461 25.3517 14.1783 25.0364 13.1747 25.0364C10.4573 25.0364 8.24636 27.3459 8.24636 30.1843C8.24803 30.658 8.31229 31.1292 8.43733 31.5845L8.82359 33.0099L6.47215 33.3445C4.32338 33.6514 2.70195 35.5903 2.70195 37.8567C2.70325 39.0641 3.16308 40.2218 3.98055 41.0756C4.79801 41.9293 5.90633 42.4095 7.06232 42.4107Z" fill="#656060"/>
<path d="M14.4068 0H11.9426V3.86096H14.4068V0Z" fill="#1E877E"/>
<path d="M4.89815 3.04758L3.15536 4.86802L5.76985 7.59836L7.51203 5.77856L4.89815 3.04758Z" fill="#1E877E"/>
<path d="M3.93404 12.2264H0.237762V14.8003H3.93404V12.2264Z" fill="#1E877E"/>
<path d="M5.76985 19.4283L3.15536 22.1587L4.89815 23.9791L7.51203 21.2481L5.76985 19.4283Z" fill="#1E877E"/>
<path d="M26.1117 12.2264H22.4154V14.8003H26.1117V12.2264Z" fill="#1E877E"/>
<path d="M21.4519 3.04758L18.8374 5.77856L20.5802 7.59836L23.1941 4.86738L21.4519 3.04758Z" fill="#1E877E"/>
<path fill-rule="evenodd" clip-rule="evenodd" d="M13.1747 20.5918C16.911 20.5918 19.9512 17.4161 19.9512 13.5133C19.9512 9.61056 16.911 6.43492 13.1747 6.43492C9.43841 6.43492 6.39822 9.61056 6.39822 13.5133C6.39822 17.4161 9.43841 20.5918 13.1747 20.5918ZM17.487 13.5133C17.487 11.0295 15.5527 9.00889 13.1747 9.00889C10.7968 9.00889 8.8624 11.0295 8.8624 13.5133C8.8624 15.9972 10.7968 18.0178 13.1747 18.0178C15.5527 18.0178 17.487 15.9972 17.487 13.5133Z" fill="#1E877E"/>
</svg>
